<svg width="171" height="45" viewBox="0 0 171 45" fill="none" xmlns="http://www.w3.org/2000/svg">
<path d="M36.5732 44.9305H8.59441C3.99655 44.9305 0.270264 41.2414 0.270264 36.6895V8.99055C0.270264 4.43867 3.99655 0.749634 8.59441 0.749634H36.5732C41.171 0.749634 44.8973 4.43867 44.8973 8.99055V36.6895C44.8973 41.2414 41.171 44.9305 36.5732 44.9305Z" fill="#FF6D6D"/>
<path d="M30.6236 23.2465C31.4194 24.2344 31.8236 25.3849 31.8236 26.6855C31.8236 28.5987 31.1794 30.0994 29.891 31.1623C28.6026 32.2253 26.7584 32.7755 24.3584 32.7755H13.8743V10.4537H24.1058C26.4047 10.4537 28.1731 10.9539 29.4236 11.9419C30.6742 12.9298 31.3057 14.3428 31.3057 16.1686C31.3057 17.5192 30.9394 18.6321 30.2194 19.5325C29.4994 20.4329 28.5521 21.0081 27.3773 21.2832C28.7542 21.6084 29.8278 22.2586 30.6236 23.2465ZM19.3184 19.5825H22.8932C24.7879 19.5825 25.7352 18.7822 25.7352 17.1815C25.7352 15.5809 24.7626 14.7805 22.83 14.7805H19.3184V19.5825ZM26.2405 25.9352C26.2405 25.1348 25.9752 24.5096 25.4447 24.0594C24.9142 23.6092 24.1563 23.3841 23.1837 23.3841H19.3311V28.3987H23.2216C25.23 28.3862 26.2405 27.5733 26.2405 25.9352Z" fill="white"/>
<path d="M70.754 32.7755L65.8783 24.347H64.6404V32.7755H59.1836V10.4537H68.493C70.274 10.4537 71.7898 10.7539 73.0151 11.3666C74.253 11.9794 75.1751 12.8172 75.794 13.8802C76.4129 14.9431 76.7161 16.1561 76.7161 17.5317C76.7161 19.1573 76.2614 20.5329 75.3645 21.6709C74.4551 22.8089 73.154 23.5842 71.4235 24.0094L76.7793 32.788H70.754V32.7755ZM64.6404 20.658H68.013C69.0993 20.658 69.8951 20.4204 70.4004 19.9452C70.9056 19.47 71.1709 18.7697 71.1709 17.8443C71.1709 16.9564 70.9056 16.2686 70.3877 15.7559C69.8698 15.2557 69.074 14.9931 68.013 14.9931H64.6404V20.658Z" fill="#FF6D6D"/>
<path d="M101.398 28.711H92.9479L91.5457 32.7877H85.811L94.072 10.6285H100.35L108.611 32.7877H102.813L101.398 28.711ZM99.9962 24.5968L97.192 16.3934L94.3499 24.5968H99.9962Z" fill="#FF6D6D"/>
<path d="M138.712 32.7755H133.255L124.135 19.0698V32.7755H118.678V10.4537H124.135L133.255 24.2845V10.4537H138.712V32.7755Z" fill="#FF6D6D"/>
<path d="M169.305 27.3982C168.358 29.0864 166.994 30.4119 165.225 31.3623C163.444 32.3127 161.36 32.7879 158.96 32.7879H150.446V10.4662H158.96C161.385 10.4662 163.482 10.9289 165.238 11.8543C167.006 12.7796 168.358 14.0802 169.305 15.7684C170.252 17.4566 170.72 19.3824 170.72 21.5833C170.72 23.7592 170.24 25.6975 169.305 27.3982ZM163.431 26.2727C164.606 25.1598 165.2 23.5841 165.2 21.5708C165.2 19.5449 164.606 17.9818 163.431 16.8688C162.257 15.7559 160.602 15.1931 158.467 15.1931H155.89V27.9484H158.467C160.602 27.9484 162.257 27.3982 163.431 26.2727Z" fill="#FF6D6D"/>
</svg>
