<svg width="138" height="45" viewBox="0 0 138 45" fill="none" xmlns="http://www.w3.org/2000/svg">
<path d="M12.6958 0.960938V1.1526L11.8916 1.34426V9.83642L12.6958 10.0281V10.2197H8.88335V10.0281L9.68754 9.83642V2.59745L6.5304 10.3524H6.12828L2.03291 2.59745V9.63001L3.10515 10.0281V10.2197H0.558594V10.0281L1.63084 9.63001V1.34426L0.826643 1.1526V0.960938H2.49457C2.74773 0.960938 2.97112 0.990423 3.14983 1.0494C3.32854 1.10837 3.50727 1.18209 3.6413 1.28529C3.79022 1.38849 3.90936 1.50644 4.0136 1.63913C4.11785 1.77182 4.20721 1.934 4.29656 2.09617L7.21543 7.62492L9.44926 2.09617C9.52372 1.90451 9.5982 1.74233 9.70245 1.60964C9.7918 1.47695 9.91091 1.35901 10.0449 1.2558C10.179 1.1526 10.3428 1.07888 10.5364 1.03465C10.73 0.990423 10.9683 0.960938 11.2661 0.960938H12.6958Z" fill="#FF6D6D"/>
<path d="M17.4614 3.42285C18.0124 3.42285 18.5187 3.49657 18.9506 3.65874C19.3825 3.82092 19.7548 4.05681 20.0675 4.35168C20.3802 4.66129 20.6036 5.02987 20.7674 5.45743C20.9312 5.88498 21.0057 6.38626 21.0057 6.93176C21.0057 7.47726 20.9312 7.97854 20.7674 8.40609C20.6036 8.83365 20.3653 9.20223 20.0675 9.51184C19.7548 9.82145 19.3825 10.0426 18.9506 10.2048C18.5187 10.367 18.0124 10.4407 17.4614 10.4407C16.9103 10.4407 16.404 10.367 15.9721 10.2048C15.5403 10.0426 15.1679 9.80671 14.8552 9.51184C14.5425 9.20223 14.3191 8.83365 14.1553 8.40609C13.9915 7.97854 13.917 7.47726 13.917 6.93176C13.917 6.38626 13.9915 5.88498 14.1553 5.45743C14.3191 5.02987 14.5574 4.66129 14.8552 4.35168C15.1679 4.04207 15.5403 3.82092 15.9721 3.65874C16.404 3.49657 16.8954 3.42285 17.4614 3.42285ZM17.4614 10.19C17.6103 10.19 17.7592 10.1458 17.923 10.0426C18.0719 9.9394 18.2059 9.77722 18.3251 9.52658C18.4442 9.27595 18.5485 8.95159 18.6229 8.53878C18.6974 8.11123 18.7421 7.58047 18.7421 6.9465C18.7421 6.2978 18.6974 5.76704 18.6229 5.35423C18.5485 4.94141 18.4442 4.60232 18.3251 4.36642C18.2059 4.13053 18.0719 3.95361 17.923 3.85041C17.7741 3.74721 17.6252 3.70298 17.4614 3.70298C17.3124 3.70298 17.1635 3.74721 16.9997 3.85041C16.8508 3.95361 16.7167 4.11579 16.5976 4.36642C16.4784 4.61706 16.3742 4.94141 16.2998 5.35423C16.2253 5.78178 16.1806 6.31254 16.1806 6.9465C16.1806 7.59521 16.2253 8.12597 16.2998 8.53878C16.3742 8.95159 16.4784 9.29069 16.5976 9.52658C16.7167 9.76248 16.8508 9.9394 16.9997 10.0426C17.1486 10.1311 17.2975 10.19 17.4614 10.19Z" fill="#FF6D6D"/>
<path d="M27.5138 0.960938C28.318 0.960938 28.7201 1.35901 28.7201 2.15515V9.85116L29.5243 10.0428V10.2345H28.318C27.9904 10.2345 27.7372 10.1903 27.5436 10.0871C27.35 9.98385 27.1862 9.8659 27.0819 9.74796C26.9479 9.60052 26.8437 9.4236 26.7841 9.24668C26.665 9.48258 26.516 9.67424 26.3373 9.85116C26.1884 9.99859 25.9799 10.1313 25.7267 10.264C25.4735 10.3967 25.1757 10.4556 24.8332 10.4556C24.446 10.4556 24.0886 10.3819 23.7609 10.2345C23.4184 10.0871 23.1355 9.8659 22.8972 9.57103C22.6589 9.27617 22.4505 8.90759 22.3164 8.48003C22.1675 8.03773 22.1079 7.53646 22.1079 6.94672C22.1079 6.35699 22.1824 5.85572 22.3164 5.41342C22.4653 4.97112 22.6589 4.61728 22.927 4.32241C23.1801 4.02755 23.4929 3.8064 23.8503 3.65896C24.2077 3.51153 24.6098 3.43781 25.0566 3.43781C25.2949 3.43781 25.5033 3.4673 25.6969 3.51153C25.8905 3.5705 26.0543 3.62948 26.1884 3.7032C26.3522 3.77691 26.4862 3.86537 26.6054 3.96858V1.3885L25.8012 1.19683V1.00517H27.5138V0.960938ZM26.5756 4.3519C26.4713 4.2487 26.382 4.16024 26.2629 4.08652C26.1586 4.01281 26.0544 3.95383 25.9352 3.89486C25.8161 3.83588 25.697 3.82114 25.5629 3.82114C25.3991 3.82114 25.2353 3.86537 25.0864 3.95383C24.9374 4.04229 24.8183 4.18972 24.6991 4.41087C24.5949 4.63202 24.5056 4.95638 24.446 5.35444C24.3864 5.76726 24.3567 6.28327 24.3567 6.93198C24.3567 7.56594 24.3864 8.06722 24.446 8.46529C24.5056 8.86336 24.58 9.17296 24.6843 9.39411C24.7736 9.61526 24.8779 9.77744 25.0119 9.85116C25.1311 9.92487 25.2502 9.9691 25.3693 9.9691C25.5778 9.9691 25.7565 9.91013 25.9054 9.80693C26.0543 9.70372 26.1735 9.57103 26.2777 9.43834C26.3969 9.27617 26.5011 9.09925 26.5905 8.90758V4.3519H26.5756Z" fill="#FF6D6D"/>
<path d="M34.0065 10.4563C32.8598 10.4563 31.9663 10.1467 31.3408 9.52747C30.7005 8.90825 30.3877 8.03839 30.3877 6.94738C30.3877 6.40188 30.4622 5.90061 30.626 5.47305C30.7898 5.0455 31.0132 4.67691 31.2961 4.3673C31.5791 4.05769 31.9216 3.83655 32.3386 3.67437C32.7407 3.51219 33.1874 3.43848 33.6789 3.43848C34.1852 3.43848 34.632 3.51219 35.0192 3.64488C35.4213 3.79232 35.7489 3.98398 36.0319 4.21987C36.3148 4.45577 36.5233 4.73589 36.6722 5.06024C36.8211 5.3846 36.8956 5.72369 36.8956 6.09227C36.8956 6.21022 36.8956 6.32817 36.8807 6.41663C36.8658 6.50509 36.851 6.59355 36.8361 6.66726C36.8063 6.75572 36.7914 6.82944 36.7616 6.88841C36.3744 6.96213 35.9574 7.03585 35.5106 7.08008C35.1383 7.13905 34.7065 7.18328 34.215 7.21276C33.7236 7.24225 33.2172 7.27174 32.6811 7.27174C32.6811 7.81724 32.7258 8.27429 32.8002 8.64287C32.8747 9.01145 32.9938 9.30632 33.1279 9.51272C33.2768 9.73387 33.4406 9.88131 33.6342 9.96977C33.8278 10.0582 34.0512 10.1025 34.2746 10.1025C34.5427 10.1025 34.7958 10.0582 35.0341 9.95502C35.2723 9.85182 35.4808 9.73387 35.6447 9.5717C35.8234 9.40952 35.9574 9.21786 36.0616 9.01145C36.1659 8.80505 36.2106 8.59864 36.2106 8.37749H36.5382C36.5382 8.64287 36.4786 8.8935 36.3595 9.14414C36.2404 9.39478 36.0616 9.61593 35.8383 9.80759C35.6149 9.99925 35.3468 10.1467 35.0341 10.2646C34.7362 10.3973 34.3937 10.4563 34.0065 10.4563ZM32.6662 6.93264C32.9641 6.93264 33.2321 6.93264 33.4704 6.9179C33.7087 6.90316 33.9023 6.88841 34.0661 6.87367C34.2597 6.85893 34.4086 6.82944 34.5426 6.81469C34.5575 6.72623 34.5873 6.62303 34.6022 6.51983C34.6171 6.41663 34.632 6.31342 34.6469 6.19548C34.6618 6.07753 34.6618 5.94484 34.6618 5.81215C34.6618 5.41408 34.632 5.07499 34.5724 4.80961C34.5128 4.54423 34.4384 4.32307 34.3341 4.14616C34.2448 3.98398 34.1405 3.85129 34.0065 3.79232C33.8725 3.73334 33.7682 3.68911 33.6491 3.68911C33.53 3.68911 33.4108 3.73334 33.2917 3.8218C33.1726 3.91026 33.0683 4.07244 32.9641 4.29359C32.8747 4.52948 32.7854 4.85383 32.7258 5.28139C32.6662 5.70895 32.6662 6.25445 32.6662 6.93264Z" fill="#FF6D6D"/>
<path d="M42.525 3.88014C42.257 3.88014 42.0187 3.93911 41.8102 4.04232C41.6017 4.14552 41.423 4.27821 41.2741 4.4109C41.1103 4.57307 40.9762 4.75 40.8422 4.94166V9.85118L41.6464 10.0428V10.2345H37.8936V10.0428L38.6977 9.85118V4.01283L37.8936 3.82117V3.6295H39.0998C39.4126 3.6295 39.6657 3.68848 39.8742 3.79168C40.0678 3.89488 40.2316 4.01283 40.3508 4.13077C40.4848 4.27821 40.5891 4.44038 40.6486 4.6173C40.7827 4.42564 40.9465 4.24872 41.1401 4.08655C41.3039 3.95386 41.5124 3.83591 41.7655 3.71796C42.0187 3.60002 42.3017 3.55579 42.6442 3.55579C43.1207 3.55579 43.4781 3.67373 43.7164 3.88014C43.9547 4.10129 44.0589 4.4109 44.0589 4.80897C44.0589 5.10383 43.9696 5.35447 43.7909 5.53139C43.6122 5.70831 43.359 5.79677 43.0612 5.79677C42.9867 5.79677 42.9271 5.79677 42.8527 5.79677C42.7782 5.79677 42.7335 5.78203 42.6889 5.78203C42.6293 5.76728 42.5697 5.76728 42.525 5.7378V3.88014Z" fill="#FF6D6D"/>
<path d="M49.8221 5.60508C49.8221 5.31021 49.7923 5.04483 49.7328 4.82369C49.6732 4.60254 49.5988 4.42561 49.4945 4.29292C49.4052 4.14549 49.3009 4.04229 49.1669 3.98331C49.0477 3.92434 48.9286 3.88011 48.8094 3.88011C48.601 3.88011 48.4223 3.93909 48.2733 4.04229C48.1244 4.14549 47.9904 4.27818 47.901 4.41087C47.7819 4.57305 47.6925 4.74997 47.6032 4.94163V9.85116L48.4074 10.0428V10.2345H44.6545V10.0428L45.4587 9.85116V4.0128L44.6545 3.82114V3.62947H45.8608C46.1735 3.62947 46.4267 3.68845 46.6352 3.79165C46.8288 3.89485 46.9926 4.0128 47.1118 4.13075C47.2458 4.27818 47.35 4.44036 47.4096 4.61728C47.5287 4.39613 47.6777 4.18972 47.8564 4.0128C48.0053 3.86537 48.2138 3.73268 48.452 3.59999C48.6903 3.4673 49.003 3.40833 49.3604 3.40833C49.7476 3.40833 50.1051 3.4673 50.4178 3.59999C50.7455 3.71794 51.0135 3.89486 51.2369 4.08652C51.4603 4.29293 51.639 4.51407 51.773 4.77945C51.9071 5.04483 51.9666 5.31021 51.9666 5.59034V9.83641L52.7708 10.0281V10.2197H51.0284C50.2242 10.2197 49.8221 9.82167 49.8221 9.02553V5.60508Z" fill="#FF6D6D"/>
<path d="M1.97339 19.5522V19.0067H12.3235V19.5522L10.1492 20.0977V31.2289H17.9527V20.0977L15.7785 19.5522V19.0067H26.1286V19.5522L23.9543 20.0977V43.0973L26.1286 43.6428V44.1883H15.7785V43.6281L17.9527 43.0826V32.1283H10.1492V43.0826L12.3235 43.6281V44.1736H1.97339V43.6281L4.14764 43.0826V20.083L1.97339 19.5522Z" fill="#FF6D6D"/>
<path d="M38.9954 25.656C40.4995 25.656 41.8398 25.8772 43.0312 26.3047C44.2225 26.7323 45.2203 27.3662 46.0543 28.1919C46.8882 29.0175 47.5286 30.02 47.9605 31.1995C48.3924 32.379 48.6157 33.7059 48.6157 35.1949C48.6157 36.684 48.3924 38.0109 47.9605 39.1904C47.5286 40.3698 46.8882 41.3576 46.0543 42.1833C45.2203 43.0089 44.2076 43.6429 43.0312 44.0704C41.8398 44.498 40.4995 44.7191 38.9954 44.7191C37.4913 44.7191 36.151 44.498 34.9596 44.0704C33.7682 43.6429 32.7704 43.0089 31.9365 42.1833C31.1025 41.3576 30.4621 40.3551 30.0303 39.1904C29.5984 38.0109 29.375 36.684 29.375 35.1949C29.375 33.7059 29.5984 32.379 30.0303 31.1995C30.4621 30.02 31.1025 29.0322 31.9365 28.1919C32.7704 27.3515 33.7831 26.7323 34.9596 26.3047C36.151 25.8772 37.4913 25.656 38.9954 25.656ZM38.9954 43.9819C39.4124 43.9819 39.8145 43.8493 40.2315 43.5839C40.6484 43.3185 41.0058 42.8615 41.3335 42.198C41.6611 41.5346 41.9292 40.6352 42.1377 39.5C42.3462 38.3647 42.4504 36.9199 42.4504 35.1654C42.4504 33.411 42.3462 31.9661 42.1377 30.8309C41.9292 29.6957 41.6611 28.7963 41.3335 28.1329C41.0058 27.4694 40.6335 27.0124 40.2315 26.747C39.8294 26.4816 39.4124 26.3489 38.9954 26.3489C38.5784 26.3489 38.1763 26.4816 37.7593 26.747C37.3424 27.0124 36.9849 27.4694 36.6573 28.1329C36.3297 28.7963 36.0616 29.6957 35.8531 30.8309C35.6446 31.9661 35.5404 33.411 35.5404 35.1654C35.5404 36.9199 35.6446 38.3647 35.8531 39.5C36.0616 40.6352 36.3297 41.5346 36.6573 42.198C36.9849 42.8615 37.3572 43.3185 37.7593 43.5839C38.1763 43.8493 38.5784 43.9819 38.9954 43.9819Z" fill="#FF6D6D"/>
<path d="M75.8239 31.5833C75.8239 30.7281 75.7495 29.991 75.6006 29.416C75.4516 28.841 75.2729 28.3545 75.0347 27.9859C74.7964 27.6173 74.5432 27.3519 74.2751 27.175C73.9922 27.0128 73.7241 26.9244 73.4561 26.9244C72.9944 26.9244 72.5923 27.0718 72.2349 27.3667C71.8775 27.6615 71.5797 28.0006 71.3116 28.3545C71.0286 28.782 70.7606 29.2686 70.5521 29.7846V43.083L72.7412 43.6285V44.174H62.5847V43.6285L64.759 43.083V31.5833C64.759 30.7281 64.6845 29.991 64.5356 29.416C64.3867 28.841 64.208 28.3545 63.9697 27.9859C63.7314 27.6173 63.4783 27.3519 63.2102 27.175C62.9273 27.0128 62.6592 26.9244 62.3911 26.9244C61.9294 26.9244 61.5274 27.0718 61.17 27.3667C60.8126 27.6615 60.5147 28.0006 60.2466 28.3545C59.9488 28.782 59.6956 29.2686 59.4871 29.7846V43.083L61.6614 43.6285V44.174H51.5049V43.6285L53.6792 43.083V27.2782L51.5049 26.7327V26.1872H54.7663C55.6151 26.1872 56.3151 26.3346 56.8512 26.6148C57.4022 26.8949 57.8192 27.2192 58.1469 27.5436C58.5043 27.9564 58.7723 28.3987 58.951 28.8705C59.2637 28.266 59.6509 27.7353 60.1126 27.2487C60.5296 26.8359 61.0359 26.4673 61.6316 26.1282C62.2422 25.7891 62.9719 25.627 63.8506 25.627C65.2951 25.627 66.5609 25.9513 67.6034 26.5853C68.6607 27.2192 69.465 28.0449 70.016 29.0474C70.3287 28.4282 70.7159 27.8679 71.1776 27.3519C71.5945 26.9244 72.1009 26.5263 72.6966 26.1725C73.3071 25.8186 74.0368 25.627 74.9155 25.627C75.9133 25.627 76.8068 25.7891 77.6408 26.0987C78.4599 26.4083 79.1747 26.8359 79.7704 27.3814C80.3661 27.9269 80.8277 28.5461 81.1553 29.2686C81.483 29.991 81.6468 30.7576 81.6468 31.5685V43.0683L83.8211 43.6138V44.1593H79.1002C76.9259 44.1593 75.8388 43.083 75.8388 40.9305V31.5833H75.8239Z" fill="#FF6D6D"/>
<path d="M95.7945 44.7047C92.6969 44.7047 90.2843 43.8643 88.5717 42.1689C86.8591 40.4734 85.9954 38.1587 85.9954 35.1805C85.9954 33.6914 86.2187 32.3646 86.6506 31.1851C87.0825 30.0056 87.6931 29.0178 88.4675 28.1774C89.2419 27.3518 90.1801 26.7179 91.2821 26.2903C92.3842 25.8627 93.5904 25.6416 94.886 25.6416C96.2412 25.6416 97.4624 25.8333 98.5346 26.2166C99.6069 26.5999 100.53 27.1159 101.275 27.7646C102.019 28.4133 102.6 29.18 103.002 30.0498C103.404 30.9197 103.598 31.8485 103.598 32.8363C103.598 33.1754 103.583 33.4703 103.538 33.7209C103.494 33.9716 103.464 34.1927 103.404 34.3844C103.33 34.6203 103.27 34.8267 103.226 34.9889C102.153 35.21 101.037 35.3869 99.8452 35.5344C98.8325 35.6818 97.656 35.7997 96.3306 35.9177C95.0052 36.0209 93.6053 36.0799 92.1608 36.0799C92.1608 37.5689 92.265 38.8074 92.4884 39.7952C92.7118 40.783 93.0096 41.5791 93.3968 42.1689C93.784 42.7586 94.2457 43.1714 94.7818 43.422C95.3179 43.6727 95.8987 43.8054 96.5242 43.8054C97.2539 43.8054 97.939 43.6727 98.5793 43.4073C99.2197 43.1419 99.7707 42.7881 100.247 42.3458C100.724 41.9035 101.096 41.4022 101.379 40.842C101.662 40.2817 101.796 39.7067 101.796 39.1317H102.704C102.704 39.8542 102.541 40.5471 102.213 41.2105C101.885 41.8887 101.424 42.4785 100.813 42.9945C100.203 43.5105 99.4878 43.9233 98.6389 44.2329C97.7752 44.5425 96.822 44.7047 95.7945 44.7047ZM92.1608 35.1805C92.9798 35.1805 93.7096 35.1658 94.335 35.1216C94.9605 35.0773 95.4966 35.0478 95.9285 35.0036C96.4348 34.9594 96.8667 34.9004 97.239 34.8267C97.2837 34.5908 97.3433 34.3254 97.4177 34.0305C97.4624 33.7652 97.5071 33.4703 97.5368 33.1459C97.5666 32.8216 97.5964 32.4825 97.5964 32.1287C97.5964 31.0524 97.5071 30.1531 97.3432 29.4159C97.1794 28.6787 96.9561 28.089 96.7029 27.6319C96.4497 27.1749 96.1519 26.8506 95.8392 26.6589C95.5115 26.4672 95.1839 26.364 94.8711 26.364C94.5584 26.364 94.2308 26.482 93.9031 26.7031C93.5755 26.939 93.2926 27.3666 93.0394 28.0005C92.7862 28.6345 92.5778 29.5338 92.3991 30.6838C92.2501 31.8338 92.1608 33.3376 92.1608 35.1805Z" fill="#FF6D6D"/>
<path d="M121.424 43.805V29.2239L108.408 19.0215V43.805H121.424Z" fill="#FF6D6D"/>
<path d="M137.523 43.805V29.2239L124.715 19.0215V43.805H137.523Z" fill="#FF6D6D"/>
</svg>
