<svg width="108" height="106" viewBox="0 0 108 106" fill="none" xmlns="http://www.w3.org/2000/svg">
<g style="mix-blend-mode:multiply">
<path d="M53.8965 104.943C82.9628 104.943 106.526 81.6158 106.526 52.8402C106.526 24.0646 82.9628 0.737305 53.8965 0.737305C24.8302 0.737305 1.26733 24.0646 1.26733 52.8402C1.26733 81.6158 24.8302 104.943 53.8965 104.943Z" fill="white"/>
<path d="M53.8965 105.68C24.4694 105.68 0.522705 81.9728 0.522705 52.84C0.522705 23.7073 24.4694 0 53.8965 0C83.3236 0 107.27 23.7073 107.27 52.84C107.27 81.9728 83.3236 105.68 53.8965 105.68ZM53.8965 1.47433C25.2885 1.47433 2.01193 24.5181 2.01193 52.84C2.01193 81.162 25.2885 104.206 53.8965 104.206C82.5045 104.206 105.781 81.162 105.781 52.84C105.781 24.5181 82.5045 1.47433 53.8965 1.47433Z" fill="#FF6D6D"/>
<path d="M61.4022 6.02976C61.7596 6.05924 62.0723 6.07398 62.3255 6.07398L62.2957 6.30988C61.8787 6.36885 61.5213 6.67846 61.2384 7.26819L57.694 14.286L57.5898 14.2713L57.5004 14.2565L55.2517 6.42782C55.1028 5.91181 54.8496 5.63169 54.4922 5.58746L54.522 5.35156C54.8496 5.41054 55.2815 5.45477 55.8176 5.51374C56.5175 5.57271 57.0388 5.61694 57.3813 5.61694L57.3515 5.85284C57.0388 5.83809 56.8154 5.85284 56.6813 5.89707C56.5473 5.9413 56.4729 6.05924 56.458 6.20667C56.4431 6.33936 56.4729 6.53103 56.5473 6.78166L58.2004 12.7675L60.6576 7.87267C60.8661 7.4746 60.9703 7.15025 61.0001 6.91435C61.0299 6.66372 60.9554 6.47205 60.7916 6.33936C60.6278 6.20667 60.3597 6.13296 60.0023 6.08873L60.0321 5.85284C60.464 5.92655 60.9256 5.98553 61.4022 6.02976Z" fill="#FF6D6D"/>
<path d="M71.41 9.14065C71.2611 9.14065 71.142 9.19962 71.0526 9.31757C70.9633 9.43551 70.859 9.62718 70.7548 9.9073L68.6252 15.5098C68.5209 15.7899 68.4614 16.011 68.4614 16.1585C68.4614 16.3059 68.5061 16.4238 68.6103 16.5123C68.7145 16.6008 68.9081 16.704 69.1762 16.8219L69.0868 17.0431C68.7443 16.8956 68.2678 16.704 67.6572 16.4681C67.0019 16.2174 66.5105 16.0553 66.1829 15.9521L66.2722 15.7309C66.5552 15.8194 66.7637 15.8636 66.8977 15.8636C67.0317 15.8636 67.1658 15.8046 67.2551 15.6867C67.3445 15.5687 67.4487 15.3771 67.5529 15.0969L69.6825 9.49449C69.7868 9.21436 69.8464 8.99321 69.8464 8.84578C69.8464 8.69835 69.8017 8.5804 69.6974 8.49194C69.5932 8.40348 69.3996 8.30028 69.1315 8.18233L69.2209 7.96118C69.5336 8.09387 70.0102 8.28553 70.6654 8.53617C71.276 8.77206 71.7675 8.93424 72.1249 9.03744L72.0355 9.25859C71.7675 9.17013 71.559 9.1259 71.41 9.14065Z" fill="#FF6D6D"/>
<path d="M84.6641 16.9397C84.5151 16.9102 84.3662 16.9545 84.2322 17.0429C84.0982 17.1314 83.9343 17.3083 83.7556 17.5589L79.4369 23.3531L79.2135 23.1909L79.7943 13.8731L75.967 19.0038C75.7883 19.2544 75.6691 19.4608 75.6096 19.623C75.55 19.7852 75.5798 19.9326 75.6543 20.08C75.7287 20.2275 75.9074 20.3897 76.1606 20.5961L76.0117 20.7877C75.7883 20.5961 75.4607 20.3454 75.0288 20.0211C74.6416 19.7409 74.3289 19.5198 74.0906 19.3871L74.2395 19.1954C74.4778 19.3576 74.6714 19.4461 74.8203 19.4608C74.9692 19.4903 75.1181 19.4461 75.2522 19.3576C75.3862 19.2544 75.55 19.0922 75.7287 18.8416L79.2433 14.1237C79.422 13.8731 79.5411 13.6814 79.5858 13.5488C79.6305 13.4161 79.6156 13.2834 79.5411 13.1654C79.4667 13.0475 79.3177 12.9001 79.0795 12.7084L79.2284 12.5167C79.422 12.6936 79.7198 12.9295 80.1219 13.2097C80.4198 13.4308 80.6729 13.6077 80.9112 13.7404L80.4347 21.5544L83.5323 17.3968C83.711 17.1461 83.845 16.9397 83.8897 16.7775C83.9343 16.6154 83.9195 16.4679 83.845 16.3205C83.7705 16.1731 83.5918 15.9961 83.3387 15.8045L83.4876 15.6128C83.711 15.8045 84.0386 16.0551 84.4705 16.3795C84.8577 16.6596 85.1704 16.8807 85.4087 17.0134L85.2598 17.2051C85.0066 17.0577 84.813 16.9545 84.6641 16.9397Z" fill="#FF6D6D"/>
<path d="M89.653 23.5893C90.0402 23.3091 90.4423 22.9995 90.8741 22.6162C91.2464 23.1765 91.9017 24.1053 92.8399 25.4174C93.7781 26.7149 94.4483 27.6289 94.8504 28.1597C94.344 28.4546 93.9121 28.7199 93.5249 28.9853C93.1973 29.2212 92.9293 29.4276 92.7357 29.5898L92.5718 29.3686C93.0484 28.9558 93.376 28.6167 93.5696 28.3661C93.7632 28.1155 93.8377 27.8501 93.8228 27.57C93.8079 27.2898 93.6292 26.9507 93.3462 26.5379L92.959 26.0072L87.3149 29.9879C87.0468 30.1795 86.8532 30.3565 86.7639 30.4891C86.6745 30.6218 86.6447 30.784 86.7043 30.9609C86.749 31.1231 86.883 31.359 87.0766 31.6539L86.883 31.8013C86.6596 31.4475 86.3171 30.9462 85.8703 30.3417C85.3938 29.6783 85.0364 29.2065 84.7981 28.9116L84.9917 28.7642C85.2151 29.0443 85.3938 29.236 85.5427 29.3392C85.6916 29.4424 85.8406 29.4719 86.0044 29.4276C86.1682 29.3834 86.3916 29.2654 86.6596 29.0738L92.3038 25.0931L91.9166 24.5623C91.6187 24.1495 91.3507 23.8989 91.0975 23.7809C90.8443 23.663 90.5614 23.6482 90.2635 23.7514C89.9657 23.8547 89.5338 24.0463 88.9828 24.3559L88.819 24.1348C89.0424 24.0168 89.3104 23.8399 89.653 23.5893Z" fill="#FF6D6D"/>
<path d="M92.5119 44.0532L92.2736 44.1269C92.1843 43.8026 92.0651 43.3898 91.8864 42.8885C91.663 42.2398 91.4843 41.7532 91.3503 41.4289L91.5886 41.3552C91.6928 41.6353 91.812 41.8417 91.9013 41.9449C92.0056 42.0481 92.1396 42.0776 92.2885 42.0186C92.4225 41.9744 92.5864 41.8712 92.78 41.709L94.433 40.3674L93.4948 37.6104L92.1098 37.5514C91.663 37.5219 91.3205 37.5514 91.0822 37.6399C90.844 37.7283 90.695 37.861 90.6355 38.0527C90.5908 38.2443 90.6206 38.5245 90.7248 38.8636L90.4866 38.9373C90.3674 38.495 90.2185 38.0527 90.0696 37.6104C89.9504 37.2713 89.8462 36.9912 89.7419 36.77L89.9802 36.6963C90.1887 37.0501 90.6355 37.2418 91.2907 37.2565L99.2134 37.6104L99.273 37.7873L92.9587 42.9917C92.5715 43.3603 92.4225 43.6994 92.5119 44.0532ZM97.6795 37.7873L93.7777 37.6251L94.6564 40.2199L97.6795 37.7873Z" fill="#FF6D6D"/>
<path d="M93.5991 55.3311C93.748 55.2721 93.8224 55.1984 93.8224 55.0952C93.8224 55.0363 93.8075 54.992 93.7778 54.9478C93.748 54.9036 93.6884 54.8151 93.5991 54.6972C93.3757 54.417 93.2119 54.1222 93.0927 53.8273C92.9736 53.5324 92.914 53.1933 92.914 52.8248C92.8991 51.9991 93.0629 51.2915 93.3906 50.687C93.7331 50.0825 94.2096 49.6255 94.8649 49.3011C95.5053 48.9768 96.2797 48.8146 97.1881 48.7998C98.1263 48.7851 98.9454 48.9325 99.6453 49.2569C100.345 49.5812 100.896 50.0235 101.283 50.6133C101.671 51.203 101.879 51.8664 101.879 52.6036C101.879 52.928 101.849 53.2228 101.79 53.4735C101.73 53.7241 101.641 53.9453 101.537 54.1369C101.432 54.3286 101.298 54.5497 101.12 54.7856C101.045 54.8888 101.001 54.9773 101.001 55.0363C101.001 55.1837 101.254 55.2869 101.745 55.3311V55.6112C101.224 55.5818 100.286 55.5818 98.9454 55.6112V55.3311C99.3772 55.2574 99.7347 55.1689 100.018 55.0805C100.301 54.992 100.539 54.8593 100.747 54.6972C101.03 54.4613 101.269 54.1517 101.432 53.7683C101.596 53.385 101.671 53.0017 101.671 52.5889C101.656 52.0581 101.477 51.6011 101.12 51.203C100.762 50.8049 100.256 50.5101 99.6155 50.2889C98.9603 50.0825 98.2156 49.9793 97.3519 49.994C96.369 50.0088 95.5797 50.1267 94.9543 50.3479C94.3288 50.569 93.882 50.8934 93.5842 51.3209C93.2863 51.7485 93.1523 52.294 93.1672 52.9574C93.1821 53.444 93.3161 53.8568 93.5693 54.2106C93.6735 54.3581 93.7629 54.4465 93.8671 54.4908C93.9565 54.535 94.0905 54.5497 94.2543 54.5497L95.4308 54.535C95.7733 54.535 96.0116 54.4908 96.1754 54.4318C96.3243 54.3728 96.4435 54.2549 96.4882 54.0779C96.5477 53.9158 96.5775 53.6504 96.5775 53.2965H96.8158C96.8009 53.6946 96.786 54.2549 96.8009 55.0068C96.8158 55.567 96.8307 55.9946 96.8605 56.26H96.6222C96.6073 56.0683 96.5626 55.9356 96.5179 55.8619C96.4733 55.7882 96.369 55.7292 96.235 55.6997C96.101 55.6702 95.8776 55.6555 95.5648 55.6702L93.1523 55.7145V55.4786C93.2863 55.4196 93.4501 55.3901 93.5991 55.3311Z" fill="#FF6D6D"/>
<path d="M91.8274 67.8781C91.3955 67.7454 90.8891 67.6127 90.3083 67.4947C90.5019 66.9787 90.7849 66.1089 91.187 64.8704C91.6635 63.3961 92.0061 62.2756 92.2146 61.5237L92.4528 61.5974C92.3784 61.8775 92.3486 62.0839 92.3486 62.2314C92.3635 62.3788 92.423 62.482 92.5422 62.5705C92.6613 62.6589 92.8698 62.7474 93.1528 62.8358L98.9161 64.6345C99.2139 64.723 99.4224 64.7672 99.5713 64.7672C99.7202 64.7672 99.8394 64.7082 99.9287 64.5903C100.018 64.4723 100.107 64.2807 100.212 64.0153L100.45 64.089C100.182 64.8409 99.8245 65.9467 99.3479 67.421C98.9905 68.5415 98.7374 69.3524 98.6182 69.8389C98.1268 69.6325 97.68 69.4556 97.263 69.3376C96.9652 69.2492 96.712 69.1755 96.5333 69.146L96.6227 68.8806C97.1439 68.9838 97.546 69.028 97.814 69.028C98.0821 69.028 98.3055 68.9396 98.4842 68.7627C98.6629 68.6005 98.8118 68.3056 98.9458 67.9075L99.2437 66.9492C99.333 66.6691 99.3777 66.4627 99.3628 66.33C99.3479 66.1973 99.3033 66.0794 99.1841 65.9909C99.065 65.9024 98.8714 65.814 98.5735 65.7255L95.8334 64.8704L95.5951 65.6371C95.476 66.0204 95.5057 66.3153 95.6993 66.5217C95.8929 66.7281 96.1014 66.8755 96.3397 66.9787C96.578 67.0819 96.7269 67.1556 96.7865 67.1851L96.6971 67.4505C96.3248 67.3031 95.9674 67.1704 95.61 67.0672L95.059 66.905C94.6718 66.787 94.1059 66.6249 93.391 66.4627L93.4804 66.1973C93.54 66.2121 93.7336 66.2415 94.0612 66.3153C94.3888 66.3742 94.6718 66.3447 94.8952 66.2268C95.1185 66.1089 95.2675 65.8877 95.3717 65.5781L95.61 64.8114L92.8102 63.9416C92.5124 63.8531 92.3039 63.8089 92.155 63.8089C92.0061 63.8089 91.8869 63.8679 91.8125 63.9858C91.7231 64.1038 91.6338 64.2954 91.5444 64.5755L91.2763 65.4159C91.1274 65.9024 91.0679 66.2858 91.1274 66.5659C91.1721 66.8608 91.321 67.0967 91.5742 67.3031C91.8274 67.4947 92.2146 67.7159 92.7358 67.9518L92.6464 68.2171C92.4677 68.0845 92.1848 67.996 91.8274 67.8781Z" fill="#FF6D6D"/>
<path d="M87.5826 85.9677C87.6422 85.8351 87.6273 85.7024 87.5677 85.5697C87.5082 85.437 87.3592 85.2748 87.1358 85.0537L82.7575 80.9108C82.5341 80.7044 82.3554 80.5717 82.2214 80.5127C82.0874 80.4537 81.9533 80.4537 81.8193 80.5127C81.6853 80.5717 81.5215 80.7044 81.313 80.9108L81.1343 80.7486C81.4172 80.498 81.7746 80.1294 82.2363 79.6723C82.7129 79.1711 83.0703 78.7877 83.2937 78.5371L83.4724 78.6993C83.2788 78.9204 83.1596 79.0974 83.1001 79.2153C83.0405 79.348 83.0554 79.4807 83.1149 79.6134C83.1745 79.7461 83.3234 79.9082 83.5468 80.1294L87.9251 84.2723C88.1485 84.4787 88.3272 84.6114 88.4613 84.6703C88.5953 84.7293 88.7293 84.7293 88.8633 84.6703C88.9974 84.6114 89.1612 84.4787 89.3697 84.2723L89.5484 84.4344C89.2952 84.6556 88.9229 85.0242 88.4464 85.5254C87.9847 85.9972 87.6422 86.3806 87.4039 86.6607L87.2252 86.4985C87.4039 86.2773 87.523 86.1004 87.5826 85.9677Z" fill="#FF6D6D"/>
<path d="M75.1774 94.9617C75.2668 94.829 75.2816 94.6963 75.2519 94.5341C75.2221 94.372 75.1178 94.1655 74.954 93.8854L71.2607 87.6785L71.499 87.531L79.928 91.7034L76.6666 86.2189C76.5028 85.9535 76.3688 85.7618 76.2348 85.6586C76.1007 85.5554 75.9518 85.5112 75.788 85.526C75.6242 85.5407 75.4008 85.6292 75.1178 85.7766L74.9838 85.5702C75.2519 85.4522 75.6093 85.2458 76.0709 84.9805C76.4879 84.7298 76.8007 84.5382 77.024 84.376L77.1432 84.5824C76.9049 84.7298 76.7411 84.8772 76.6666 85.0099C76.5773 85.1426 76.5624 85.2753 76.5922 85.4375C76.622 85.5997 76.7262 85.8061 76.89 86.0862L79.8982 91.1432C80.0472 91.4085 80.1812 91.5855 80.3003 91.6739C80.4195 91.7624 80.5386 91.8066 80.6875 91.7771C80.8216 91.7476 81.0301 91.6739 81.2832 91.5412L81.4024 91.7476C81.1641 91.8656 80.8365 92.0425 80.4046 92.2931C80.0918 92.4701 79.8238 92.647 79.6004 92.7944L72.5266 89.3002L75.1774 93.7527C75.3412 94.0181 75.4752 94.2098 75.6093 94.313C75.7284 94.4162 75.8773 94.4604 76.056 94.4457C76.2348 94.4309 76.4581 94.3425 76.7411 94.195L76.8602 94.4014C76.5922 94.5194 76.2347 94.7258 75.7731 94.9912C75.3561 95.2418 75.0434 95.4335 74.82 95.5956L74.7009 95.3892C74.9242 95.2271 75.088 95.0796 75.1774 94.9617Z" fill="#FF6D6D"/>
<path d="M66.9869 96.8924C67.0912 97.3495 67.2252 97.8507 67.4039 98.3815C66.7337 98.4995 65.6168 98.7353 64.0382 99.0597C62.4597 99.3988 61.3576 99.6494 60.7024 99.8116C60.6279 99.2366 60.5535 98.7353 60.4492 98.2783C60.3599 97.8802 60.2854 97.5559 60.196 97.32L60.4641 97.261C60.6577 97.8655 60.8364 98.293 61.0002 98.5732C61.164 98.8533 61.3725 99.0302 61.6406 99.1187C61.9087 99.2071 62.2959 99.1924 62.7873 99.0892L63.4277 98.9565L61.9682 92.2483C61.8938 91.9239 61.8193 91.688 61.7151 91.5553C61.6108 91.4227 61.4917 91.3342 61.313 91.3194C61.1343 91.29 60.8662 91.3195 60.5088 91.3784L60.4641 91.1425C60.8811 91.0836 61.4768 90.9656 62.2214 90.8034C63.0107 90.6265 63.6064 90.4938 63.9787 90.3906L64.0234 90.6265C63.6659 90.715 63.4277 90.8034 63.2787 90.8919C63.1298 90.9804 63.0405 91.113 63.0107 91.2752C62.9809 91.4374 62.9958 91.688 63.0702 92.0124L64.5297 98.7206L65.1701 98.5879C65.6615 98.4847 66.0189 98.3373 66.2274 98.1456C66.4359 97.9539 66.555 97.7033 66.5848 97.3937C66.6146 97.0841 66.5997 96.6123 66.5252 95.9931L66.7933 95.9341C66.838 96.17 66.8976 96.4944 66.9869 96.8924Z" fill="#FF6D6D"/>
<path d="M47.2248 92.7502C47.2695 92.2932 47.2844 91.7771 47.2844 91.2021C47.8354 91.2759 48.7587 91.3643 50.0693 91.4823C51.6181 91.615 52.7945 91.7182 53.5987 91.7624L53.5838 91.9983C53.286 91.9835 53.0775 91.9983 52.9435 92.0425C52.8094 92.0867 52.7052 92.1605 52.6456 92.2932C52.5861 92.4258 52.5414 92.647 52.5116 92.9419L51.9755 98.9129C51.9457 99.2078 51.9606 99.4289 51.9904 99.5764C52.0201 99.7238 52.1095 99.827 52.2435 99.886C52.3776 99.9449 52.5861 100.004 52.869 100.033L52.8541 100.269C52.0648 100.181 50.8883 100.063 49.3395 99.9302C48.1482 99.827 47.2993 99.768 46.793 99.7385C46.8972 99.2225 46.9717 98.7507 47.0015 98.3232C47.0312 98.0136 47.0461 97.7629 47.0312 97.5713L47.3142 97.6007C47.3291 98.1315 47.3589 98.5148 47.4333 98.7802C47.4929 99.0456 47.6269 99.2373 47.8354 99.3699C48.029 99.5026 48.3567 99.5911 48.7736 99.6206L49.7863 99.709C50.0842 99.7385 50.2926 99.7238 50.4267 99.6943C50.5607 99.6648 50.665 99.5763 50.7245 99.4437C50.7841 99.311 50.8288 99.0898 50.8585 98.795L51.1117 95.9642L50.3075 95.8905C49.9054 95.861 49.6225 95.9495 49.4587 96.1854C49.3098 96.4213 49.1906 96.6572 49.1459 96.9078C49.0864 97.1585 49.0566 97.3206 49.0417 97.3943L48.7587 97.3649C48.8183 96.9668 48.863 96.5982 48.9077 96.2296L48.9523 95.6546C48.9821 95.2418 49.0119 94.6816 49.0417 93.9444L49.3247 93.9739C49.3247 94.0329 49.3395 94.2245 49.3395 94.5636C49.3544 94.9027 49.4289 95.1681 49.6076 95.345C49.7714 95.5367 50.0246 95.6399 50.3522 95.6694L51.1564 95.7431L51.4096 92.8534C51.4393 92.5585 51.4245 92.3374 51.3947 92.1899C51.3649 92.0573 51.2755 91.9541 51.1415 91.8951C51.0075 91.8361 50.799 91.7919 50.516 91.7624L49.6225 91.6887C49.1162 91.6444 48.729 91.6739 48.446 91.7919C48.1779 91.8951 47.9695 92.1015 47.8205 92.3816C47.6716 92.6617 47.5525 93.0893 47.4333 93.6495L47.1504 93.6201C47.1504 93.3989 47.1802 93.104 47.2248 92.7502Z" fill="#FF6D6D"/>
<path d="M35.5049 87.2805C35.7283 87.2363 35.9815 87.2805 36.2495 87.3984C36.5623 87.5311 36.7708 87.7228 36.8899 87.9734C37.009 88.2388 37.0239 88.6074 36.9495 89.0939L36.7261 90.3029C36.6516 90.7304 36.6069 91.0548 36.592 91.3054C36.5772 91.5413 36.6367 91.7625 36.741 91.9541C36.8452 92.1458 37.0388 92.2932 37.3218 92.4112L38.394 92.8535L39.4811 90.2881C39.6003 90.008 39.6599 89.8016 39.6747 89.6542C39.6896 89.5067 39.6301 89.3888 39.5258 89.2856C39.4216 89.1824 39.2429 89.0792 38.9748 88.9612L39.0642 88.7401C39.4067 88.9023 39.8683 89.1087 40.4789 89.3593C41.1193 89.6247 41.6107 89.8163 41.9384 89.9196L41.849 90.1407C41.5661 90.0375 41.3576 89.9933 41.2235 89.9785C41.0746 89.9785 40.9555 90.0228 40.8661 90.1407C40.7619 90.2439 40.6576 90.4356 40.5385 90.7157L38.2004 96.2444C38.0813 96.5246 38.0217 96.731 38.0068 96.8784C37.9919 97.0258 38.0515 97.1438 38.1557 97.247C38.26 97.3502 38.4387 97.4534 38.7067 97.5861L38.6174 97.8072C38.3047 97.6598 37.8579 97.4534 37.2622 97.2027C36.9644 97.0848 36.6516 96.9521 36.2942 96.8047C35.9368 96.6573 35.6985 96.5688 35.5645 96.5098C34.9837 96.2592 34.522 95.9791 34.1795 95.64C33.837 95.3009 33.6434 94.947 33.554 94.5637C33.4647 94.1804 33.5094 93.8118 33.6732 93.4432C33.7923 93.1483 33.9859 92.883 34.254 92.6471C34.522 92.4112 34.8646 92.2343 35.2815 92.1458C35.6985 92.0573 36.2049 92.0721 36.7559 92.2048L36.6218 92.131C36.3091 91.9394 36.0708 91.7477 35.9219 91.5413C35.773 91.3497 35.6687 91.1285 35.6389 90.8926C35.5943 90.6567 35.6092 90.3618 35.6687 90.008L35.8772 88.7548C35.9219 88.5042 35.9517 88.3125 35.9517 88.1651C35.9517 88.0177 35.9368 87.8997 35.8921 87.8113C35.8474 87.7228 35.773 87.6491 35.6687 87.6196C35.5496 87.5606 35.4305 87.5606 35.3262 87.5901C35.222 87.6196 35.073 87.6933 34.8794 87.7965L34.7603 87.6048C35.0284 87.4427 35.2815 87.3247 35.5049 87.2805ZM36.2495 92.5291C35.8921 92.5733 35.6092 92.706 35.3858 92.9272C35.1624 93.1483 34.9688 93.4432 34.805 93.8265C34.5518 94.431 34.4922 94.9618 34.6561 95.3893C34.8199 95.8169 35.222 96.1707 35.8921 96.4508C36.1304 96.554 36.3091 96.5983 36.458 96.5835C36.592 96.5835 36.7112 96.5246 36.8154 96.4066C36.9197 96.2887 37.0239 96.097 37.1282 95.8316L38.2898 93.0894L37.5303 92.7798C37.0388 92.5733 36.6069 92.4849 36.2495 92.5291Z" fill="#FF6D6D"/>
<path d="M23.8887 89.2853C24.0227 89.3296 24.1567 89.3001 24.2759 89.2264C24.395 89.1526 24.5588 88.9905 24.7524 88.7546L28.4904 84.0367C28.684 83.8008 28.8031 83.6092 28.8478 83.4765C28.8924 83.3438 28.8776 83.2111 28.8031 83.0931C28.7286 82.9752 28.5797 82.813 28.3563 82.6214L28.5053 82.4297C28.7882 82.6803 29.1754 83.0047 29.6966 83.4027C30.2476 83.8303 30.6646 84.1399 30.9476 84.3316L30.7987 84.5232C30.5604 84.3463 30.3668 84.2431 30.2328 84.2136C30.0987 84.1694 29.9647 84.1841 29.8456 84.2726C29.7264 84.3463 29.5626 84.5085 29.369 84.7444L25.631 89.4623C25.4374 89.6981 25.3183 89.8898 25.2736 90.0225C25.229 90.1552 25.2438 90.2879 25.3183 90.4058C25.3928 90.5238 25.5417 90.6859 25.7651 90.8776L25.6162 91.0693C25.363 90.8481 24.9609 90.5238 24.4099 90.0815C23.8887 89.6834 23.4717 89.3738 23.1738 89.1674L23.3228 88.9757C23.5759 89.1379 23.7546 89.2411 23.8887 89.2853Z" fill="#FF6D6D"/>
<path d="M14.2684 78.7881C14.2089 78.1246 14.3578 77.4612 14.7003 76.8272C15.0577 76.1785 15.5938 75.6035 16.3384 75.058C17.0682 74.542 17.7979 74.2029 18.5574 74.0702C19.3169 73.9375 20.0168 73.9818 20.6721 74.2324C21.3273 74.483 21.8784 74.9106 22.3102 75.5151C22.7719 76.1343 23.0251 76.783 23.0846 77.4464C23.1442 78.1099 22.9953 78.7733 22.6528 79.4073C22.2953 80.056 21.7592 80.631 21.0146 81.1765C20.2849 81.6925 19.5552 82.0316 18.7957 82.1643C18.0511 82.297 17.3362 82.2528 16.681 82.0021C16.0257 81.7515 15.4747 81.3239 15.0428 80.7342C14.5812 80.1002 14.328 79.4515 14.2684 78.7881ZM16.5023 81.4124C17.0235 81.5156 17.6192 81.4714 18.2744 81.265C18.9297 81.0586 19.585 80.7195 20.27 80.2182C20.955 79.7317 21.4912 79.2009 21.8635 78.6406C22.2507 78.0804 22.4592 77.5202 22.4889 76.9894C22.5336 76.4586 22.3996 75.9869 22.1166 75.5888C21.8039 75.176 21.4018 74.9106 20.8657 74.8074C20.3445 74.7042 19.7488 74.7484 19.0935 74.9548C18.4383 75.1612 17.783 75.5003 17.0979 75.9869C16.4129 76.4734 15.8768 77.0041 15.5045 77.5791C15.1173 78.1394 14.9088 78.6849 14.8641 79.2304C14.8194 79.7611 14.9535 80.2329 15.2364 80.631C15.5492 81.0438 15.9661 81.3092 16.5023 81.4124Z" fill="#FF6D6D"/>
<path d="M15.415 61.0374C15.5937 61.1701 15.7278 61.3913 15.8171 61.6861C15.9214 61.9957 15.9065 62.2906 15.7873 62.5412C15.6682 62.8066 15.3853 63.0573 14.9534 63.3079L13.8662 63.9124C13.4939 64.1335 13.211 64.3105 13.0174 64.4579C12.8238 64.6053 12.6898 64.7822 12.6153 64.9886C12.5408 65.1951 12.5408 65.4309 12.6302 65.7258L12.9727 66.8316L15.6533 66.0059C15.9512 65.9175 16.1448 65.829 16.2639 65.7406C16.383 65.6521 16.4426 65.5341 16.4575 65.4015C16.4724 65.2688 16.4277 65.0476 16.3532 64.7675L16.5915 64.6938C16.6809 65.0476 16.8149 65.5489 17.0234 66.1681C17.2319 66.8316 17.3957 67.3181 17.5148 67.6277L17.2766 67.7014C17.1723 67.4213 17.083 67.2296 16.9936 67.1264C16.9043 67.0232 16.7851 66.9495 16.6362 66.9495C16.4873 66.9495 16.2639 66.979 15.9809 67.0822L10.2028 68.8514C9.90491 68.9399 9.71131 69.0283 9.59217 69.1168C9.47303 69.2052 9.41346 69.3232 9.39857 69.4559C9.38368 69.6033 9.42836 69.8097 9.50282 70.0898L9.26454 70.1635C9.19008 69.8392 9.05605 69.3674 8.86245 68.7482C8.7731 68.4533 8.65396 68.1142 8.53482 67.7604C8.41568 67.4065 8.32633 67.1559 8.28165 67.0232C8.08805 66.4187 8.02849 65.888 8.07316 65.4162C8.11784 64.9444 8.26676 64.5611 8.50504 64.2515C8.74331 63.9419 9.05605 63.7355 9.44325 63.6175C9.74109 63.5291 10.0687 63.4996 10.4261 63.5438C10.7835 63.588 11.1261 63.7355 11.4835 64.0008C11.8409 64.2662 12.1387 64.6495 12.3919 65.1656L12.377 65.0181C12.3323 64.6495 12.3174 64.3547 12.377 64.104C12.4366 63.8534 12.5408 63.647 12.6898 63.4701C12.8536 63.2932 13.0918 63.1015 13.4046 62.9246L14.5066 62.2759C14.73 62.1579 14.9087 62.04 15.0129 61.9515C15.1172 61.8631 15.2065 61.7746 15.2512 61.6861C15.2959 61.5977 15.2959 61.4945 15.2661 61.3913C15.2214 61.2586 15.1619 61.1701 15.0725 61.1112C14.9832 61.0522 14.8342 60.9785 14.6257 60.9047L14.7002 60.6836C14.9981 60.7868 15.2512 60.9047 15.415 61.0374ZM11.8558 64.9886C11.6026 64.7528 11.3048 64.6201 10.992 64.5906C10.6793 64.5611 10.3219 64.6053 9.9198 64.738C9.27943 64.9297 8.84756 65.2393 8.60928 65.6373C8.37101 66.0354 8.37101 66.5809 8.5795 67.2444C8.65396 67.4803 8.74331 67.6572 8.83267 67.7604C8.92202 67.8636 9.05605 67.9226 9.20497 67.9226C9.35389 67.9226 9.57728 67.8783 9.84534 67.8046L12.7046 66.92L12.4664 66.1386C12.3175 65.6079 12.109 65.2245 11.8558 64.9886Z" fill="#FF6D6D"/>
<path d="M14.2683 47.046C14.8342 46.7954 15.1767 46.3236 15.3256 45.6159C15.3703 45.3505 15.3703 45.0851 15.2959 44.8345C15.2214 44.5839 15.0874 44.3627 14.8789 44.1711C14.6704 43.9794 14.3874 43.8467 14.0151 43.7877C13.7024 43.7288 13.4194 43.7582 13.1514 43.8614C12.8833 43.9646 12.6153 44.1268 12.3621 44.348C12.1089 44.5691 11.8111 44.864 11.4834 45.2326C11.1111 45.6454 10.7835 45.9845 10.5006 46.2204C10.2176 46.471 9.90487 46.6479 9.56235 46.7806C9.21983 46.9133 8.83263 46.9281 8.40075 46.8543C7.95399 46.7659 7.58168 46.6037 7.31362 46.3383C7.04556 46.0729 6.85196 45.7633 6.76261 45.3947C6.67325 45.0262 6.67325 44.6428 6.74771 44.23C6.79239 43.9794 6.85196 43.7877 6.92642 43.6108C7.00088 43.4339 7.07534 43.3012 7.1647 43.198C7.25405 43.0948 7.3434 42.9768 7.46254 42.8589C7.61146 42.6967 7.68593 42.5788 7.71571 42.4903C7.7306 42.4166 7.70082 42.3576 7.62636 42.2987C7.5519 42.2397 7.41787 42.1954 7.23916 42.1365L7.28384 41.8711C7.7455 41.989 8.54968 42.166 9.72616 42.3871L9.68149 42.6525C9.2645 42.6083 8.87731 42.623 8.49011 42.7115C8.1178 42.7852 7.79017 42.9474 7.52211 43.198C7.25405 43.4339 7.07534 43.773 7.00088 44.1858C6.94131 44.4659 6.95621 44.7166 7.03067 44.9672C7.10513 45.2178 7.23916 45.4095 7.41787 45.5717C7.61147 45.7338 7.83485 45.837 8.10291 45.896C8.53478 45.9697 8.90709 45.9108 9.21983 45.7044C9.53256 45.498 9.83041 45.2326 10.1134 44.923C10.3963 44.6134 10.575 44.4069 10.6793 44.3037C11.0962 43.8614 11.4388 43.5223 11.7217 43.2717C12.0047 43.0211 12.3174 42.8442 12.6599 42.7262C13.0025 42.6083 13.3748 42.5935 13.7769 42.6672C14.2683 42.7557 14.6704 42.9474 14.9682 43.2275C15.2661 43.5223 15.4597 43.8614 15.5639 44.2743C15.6682 44.6871 15.6682 45.1294 15.5788 45.6012C15.5044 45.9845 15.415 46.2793 15.281 46.5152C15.1618 46.7511 14.998 46.9575 14.8193 47.1492C14.6704 47.3114 14.5959 47.4293 14.5661 47.5178C14.5512 47.5915 14.581 47.6505 14.6555 47.7094C14.73 47.7684 14.864 47.8274 15.0427 47.8716L14.998 48.137C14.5661 48.0191 13.613 47.8274 12.1387 47.562L12.1834 47.2966C13.0173 47.3704 13.7024 47.2966 14.2683 47.046Z" fill="#FF6D6D"/>
<path d="M11.3198 34.6171C10.9028 34.396 10.4263 34.1895 9.89014 33.9831C10.2178 33.4082 10.7688 32.4056 11.5134 30.9755C12.258 29.5601 12.7792 28.5576 13.0622 27.9531C13.5536 28.2627 14.0004 28.5281 14.4025 28.7345C14.7599 28.9262 15.0726 29.0589 15.3109 29.1621L15.1769 29.4127C14.5812 29.1768 14.1344 29.0294 13.8217 28.9852C13.509 28.9262 13.226 28.9852 12.9877 29.1326C12.7494 29.28 12.5112 29.5749 12.2878 30.0172L11.9899 30.6069L18.1404 33.7767C18.4383 33.9389 18.6766 34.0126 18.8404 34.0274C19.0042 34.0421 19.1531 33.9979 19.2871 33.8799C19.4212 33.762 19.5701 33.5408 19.7488 33.2312L19.9722 33.3492C19.7488 33.7178 19.4658 34.2338 19.1084 34.912C18.7361 35.6197 18.4681 36.1652 18.3043 36.5043L18.0809 36.3863C18.2298 36.062 18.334 35.8113 18.3489 35.6491C18.3787 35.4722 18.334 35.3248 18.2149 35.1921C18.0958 35.0594 17.9022 34.9267 17.6043 34.7645L11.4538 31.58L11.1411 32.155C10.9028 32.5973 10.7986 32.9511 10.8135 33.2312C10.8283 33.5114 10.9475 33.762 11.1709 33.9831C11.3943 34.2043 11.7666 34.4992 12.3027 34.8383L12.1686 35.0889C11.9751 34.9709 11.6772 34.8088 11.3198 34.6171Z" fill="#FF6D6D"/>
<path d="M21.8334 17.6771C22.0866 17.4265 22.2951 17.1906 22.444 17.0137L22.6227 17.1906C22.5333 17.3233 22.4887 17.5149 22.5035 17.7361C22.5184 17.9572 22.578 18.2669 22.6971 18.6354L24.0523 22.6309L25.6309 24.1789C25.8543 24.3853 26.0181 24.5328 26.1521 24.5917C26.2862 24.6507 26.4202 24.6507 26.5542 24.5917C26.6883 24.5328 26.8521 24.4001 27.0755 24.2084L27.2542 24.3853C26.9712 24.636 26.5989 24.9898 26.1373 25.4469C25.6458 25.9334 25.2884 26.3167 25.065 26.5673L24.8863 26.3904C25.0799 26.1693 25.2139 26.0071 25.2735 25.8744C25.3331 25.7417 25.3331 25.609 25.2586 25.4763C25.199 25.3436 25.0501 25.1667 24.8416 24.9603L23.5311 23.6777L18.5571 22.2328C18.2593 22.1443 18.0359 22.1149 17.887 22.1296C17.738 22.1443 17.6338 22.1886 17.5593 22.2623L17.3806 22.0854C17.6189 21.879 17.887 21.6431 18.155 21.363C18.706 20.8027 19.1081 20.4046 19.3315 20.1393L19.5102 20.3162C19.1081 20.7142 19.0188 21.0239 19.2421 21.245C19.3315 21.3335 19.4506 21.3924 19.6293 21.4514L23.8141 22.7341L22.712 19.4758C22.5482 19.004 22.3844 18.6797 22.2057 18.5175C22.0419 18.3553 21.8632 18.3111 21.6696 18.3701C21.476 18.429 21.2526 18.5765 20.9845 18.8271L20.8058 18.6502C21.1632 18.3258 21.4909 18.0015 21.8334 17.6771Z" fill="#FF6D6D"/>
<path d="M30.8437 11.7352C30.7543 11.8384 30.7097 11.9711 30.7395 12.1186C30.7692 12.266 30.8437 12.4724 30.9926 12.7378L33.8668 18.0159C34.0157 18.2813 34.1349 18.4582 34.254 18.5614C34.3583 18.6646 34.4923 18.6941 34.6263 18.6793C34.7604 18.6646 34.9688 18.5761 35.222 18.4435L36.0113 18.0159C36.4581 17.78 36.7708 17.5294 36.9346 17.2787C37.0984 17.0281 37.158 16.748 37.1133 16.4089C37.0687 16.0698 36.9346 15.6422 36.6964 15.082L36.9495 14.9493C37.0538 15.1852 37.2027 15.48 37.3963 15.8339C37.6197 16.232 37.8877 16.6743 38.2154 17.1608C37.7239 17.3967 36.8899 17.8242 35.7432 18.4435C34.3732 19.1806 33.3307 19.7409 32.6457 20.1389L32.5265 19.9325C32.7797 19.7851 32.9584 19.6524 33.0478 19.5492C33.1371 19.446 33.1818 19.3133 33.152 19.1659C33.1222 19.0184 33.0477 18.812 32.8988 18.5467L29.9948 13.2685C29.8459 13.0032 29.7268 12.8262 29.6076 12.723C29.5034 12.6198 29.3694 12.5904 29.2353 12.6051C29.0864 12.6198 28.8928 12.6936 28.6248 12.8262L28.5205 12.6051C28.8332 12.4724 29.2949 12.2365 29.9055 11.8974C30.4863 11.5878 30.9331 11.3372 31.2458 11.1455L31.3649 11.3519C31.1118 11.4993 30.9479 11.632 30.8437 11.7352Z" fill="#FF6D6D"/>
<path d="M48.9823 12.6787C49.0716 13.121 49.2056 13.6223 49.3694 14.1825C48.8184 14.271 47.91 14.4331 46.6293 14.6838C45.0954 14.9787 43.9487 15.2145 43.1594 15.3915L43.1147 15.1556C43.3977 15.0819 43.6062 15.0229 43.7253 14.9344C43.8444 14.8607 43.9189 14.7428 43.9338 14.6101C43.9487 14.4626 43.9338 14.2415 43.8742 13.9466L42.7126 8.06404C42.653 7.76917 42.5935 7.56276 42.5041 7.43007C42.4148 7.29738 42.3254 7.22367 42.1765 7.20892C42.0425 7.17944 41.8191 7.19418 41.5361 7.23841L41.4915 7.00252C42.2807 6.86983 43.4423 6.66342 44.9613 6.36856C46.1378 6.13266 46.9718 5.97049 47.4484 5.85254C47.493 6.3833 47.5675 6.85508 47.6419 7.2679C47.7015 7.57751 47.7611 7.8134 47.8207 7.99032L47.5526 8.04929C47.3888 7.54802 47.2399 7.17944 47.1058 6.94354C46.9718 6.70765 46.7782 6.56022 46.5548 6.4865C46.3165 6.41279 46.0038 6.41278 45.5719 6.50124L44.5741 6.69291C44.2912 6.75188 44.0827 6.81085 43.9636 6.88457C43.8444 6.95829 43.77 7.06149 43.7402 7.20892C43.7253 7.35636 43.7402 7.57751 43.7998 7.87237L44.3508 10.6736L45.1401 10.5114C45.5421 10.4377 45.7804 10.2608 45.8698 9.99541C45.9591 9.73003 45.9889 9.4794 45.974 9.22876C45.9591 8.97812 45.9442 8.81595 45.9442 8.74223L46.2123 8.68326C46.257 9.08133 46.3165 9.44991 46.391 9.80375L46.5101 10.364C46.5846 10.7621 46.7186 11.3223 46.9122 12.03L46.6442 12.089C46.6293 12.03 46.5697 11.8531 46.4655 11.5287C46.3612 11.2044 46.2123 10.9832 45.9889 10.8505C45.7655 10.7178 45.5124 10.6883 45.1847 10.7473L44.3954 10.8948L44.9613 13.7402C45.0209 14.0351 45.0805 14.2415 45.1549 14.3742C45.2294 14.4921 45.3337 14.5658 45.4826 14.5953C45.6166 14.6101 45.84 14.5953 46.1229 14.5364L47.0016 14.3594C47.493 14.2562 47.8653 14.1235 48.1036 13.9466C48.3419 13.7697 48.4759 13.5191 48.5355 13.2095C48.5951 12.8998 48.5951 12.4575 48.5504 11.8826L48.8184 11.8236C48.8631 12.0447 48.9078 12.3249 48.9823 12.6787Z" fill="#FF6D6D"/>
<path d="M38.9446 68.9841C38.2596 68.07 37.6639 67.0674 37.1427 65.9617C36.6214 64.8559 36.2044 63.7354 35.8917 62.5855C35.2067 57.5285 35.1918 52.619 35.8321 47.8569C36.4725 43.0948 37.515 38.4064 38.9446 33.777C39.1829 33.261 39.7041 33.0104 40.5083 33.0104C41.3125 33.0104 42.1018 33.1873 42.906 33.5411C43.7101 33.895 44.3654 34.3667 44.8866 34.9565C45.4079 35.5462 45.527 36.1654 45.244 36.7994C44.7973 37.743 44.3654 39.0256 43.9335 40.6179C43.5016 42.2249 43.0698 43.9941 42.6826 45.9255C42.2805 47.8569 41.938 49.8915 41.6401 51.9998C41.3423 54.108 41.1189 56.1426 40.9849 58.074C40.8508 60.0054 40.821 61.7598 40.8955 63.3226C40.97 64.8854 41.2082 66.1238 41.6103 67.0232C43.4868 64.5316 45.1994 61.9515 46.763 59.2829C48.3267 56.6144 49.7862 53.9164 51.1563 51.1594C52.5263 48.4171 53.8369 45.6454 55.0729 42.8294C56.309 40.0282 57.5301 37.2564 58.7215 34.5289C59.3172 33.143 59.9129 31.6835 60.4937 30.1502C61.0745 28.6021 61.834 27.29 62.802 26.1842C63.2041 25.8304 63.5168 25.7124 63.7253 25.8304C63.9487 25.9483 64.0976 26.1695 64.1721 26.5086C64.2465 26.8477 64.2912 27.2015 64.2912 27.5701C64.2912 27.9387 64.2912 28.2335 64.2912 28.4252C64.0083 30.2386 63.77 32.0373 63.5764 33.8212C63.3828 35.6052 62.9509 37.3154 62.3254 38.9814C61.283 41.591 60.2256 44.171 59.1236 46.7511C58.0216 49.3165 56.8451 51.8523 55.5941 54.3439C54.3432 56.8356 52.9731 59.2535 51.5286 61.5976C50.0691 63.9566 48.4905 66.1976 46.763 68.3206C45.4078 70.0161 44.0527 70.9154 42.7272 71.0186C41.3423 71.1366 40.1062 70.4436 38.9446 68.9841Z" fill="#FF6D6D" stroke="white" stroke-miterlimit="10"/>
<path d="M63.6064 62.2909C62.8022 61.1852 62.0129 60.0647 61.2385 58.9147C60.4641 57.7647 60.0769 56.5115 60.0769 55.1257C60.0769 53.5924 60.5237 52.1328 61.4172 50.7616C62.3107 49.4053 63.3383 48.2995 64.4999 47.4739C64.9765 47.1643 65.4679 46.8989 65.9593 46.7072C66.4508 46.5156 66.9869 46.5303 67.5528 46.7662C67.7911 46.8842 68.0443 46.9726 68.2974 47.0316C68.5506 47.0906 68.7889 47.1643 68.9825 47.238C69.1761 47.3117 69.3995 47.4297 69.6377 47.5918C69.876 47.754 69.9951 47.9604 69.9951 48.2405C69.9951 49.3463 70.0249 50.2456 70.0845 50.9386C70.1441 51.6315 70.2334 52.2212 70.3526 52.7225C70.4717 53.2238 70.5908 53.6513 70.71 54.0199C70.8291 54.4032 70.9482 54.8013 71.0674 55.2289C71.1418 55.6269 71.127 55.966 71.0078 56.2314C70.8887 56.5115 70.5908 56.541 70.1143 56.3494C69.2356 56.0398 68.5804 55.4058 68.1634 54.4475C67.7464 53.4892 67.4337 52.634 67.2401 51.8379C67.1954 51.6757 67.106 51.4104 66.9422 51.0123C66.7784 50.6142 66.6891 50.3341 66.6444 50.1867C66.3317 50.1129 65.9444 50.2161 65.5126 50.511C65.0807 50.8059 64.6786 51.2187 64.351 51.72C64.0085 52.236 63.7851 52.8257 63.6957 53.5039C63.5915 54.1821 63.7255 54.8455 64.0829 55.5237C64.2467 55.7596 64.4701 56.0545 64.768 56.3789C65.0658 56.718 65.3637 57.057 65.6615 57.4109C65.9593 57.7647 66.2572 58.1186 66.555 58.4429C66.8529 58.7673 67.106 59.0474 67.2996 59.2391C67.5379 59.4749 67.7017 59.6076 67.7762 59.6224C67.8507 59.6371 68.0592 59.5929 68.3719 59.4749C68.774 59.2833 69.3846 59.0179 70.2036 58.7083C71.0227 58.3987 71.8865 58.0743 72.78 57.7647C73.6735 57.4551 74.5373 57.1897 75.3563 56.9686C76.1754 56.7474 76.8009 56.6442 77.2477 56.6442C77.5306 56.6442 77.7242 56.7474 77.8433 56.9391C77.9625 57.057 77.9476 57.2192 77.7838 57.4109C77.62 57.6025 77.4115 57.809 77.1583 58.0006C76.9051 58.1923 76.6222 58.3692 76.3541 58.5314C76.0712 58.6936 75.8925 58.782 75.818 58.8262C75.133 59.2243 74.2841 59.6666 73.2417 60.1679C72.1992 60.6544 71.3057 61.1409 70.5462 61.6127C70.4717 61.6864 70.3228 61.7749 70.0994 61.8486C69.876 61.9223 69.7122 62.0108 69.5931 62.0845C70.0696 63.146 70.4121 64.0749 70.6057 64.8415C70.7993 65.6082 70.8738 66.3453 70.8142 67.0678C70.7546 67.7754 70.6057 68.4979 70.3674 69.235C70.1292 69.9722 69.8015 70.8126 69.4143 71.7561C68.8484 72.6702 68.2825 73.5401 67.7017 74.3657C67.1209 75.1913 66.4806 75.9432 65.7508 76.6214C65.036 77.2996 64.2467 77.8304 63.4128 78.2137C62.5788 78.6118 61.6555 78.8034 60.6577 78.8034C60.0918 78.8034 59.5557 78.7297 59.0345 78.597C58.5132 78.4643 58.0813 78.1695 57.7239 77.7419C56.8006 76.7541 56.2943 75.6779 56.1751 74.5131C56.056 73.3484 56.1602 72.1984 56.473 71.0485C56.7113 70.3408 57.0091 69.6921 57.3665 69.0876C58.2452 67.5838 59.2132 66.3158 60.2705 65.2691C61.3427 64.237 62.4448 63.2345 63.6064 62.2909ZM65.6466 64.9595C65.1998 65.4018 64.6041 66.021 63.8446 66.8319C63.0851 67.6427 62.3852 68.5273 61.7151 69.4709C61.0598 70.4145 60.5237 71.3581 60.1067 72.2869C59.6897 73.2157 59.5855 74.0119 59.7791 74.6901C60.5832 74.3362 61.4023 73.7465 62.2363 72.9356C63.0702 72.1247 63.8149 71.2401 64.4552 70.2671C65.0956 69.294 65.5424 68.3357 65.7955 67.3921C66.0487 66.4338 66.004 65.6229 65.6466 64.9595Z" fill="#FF6D6D" stroke="white" stroke-miterlimit="10"/>
<path d="M53.8965 86.2929C35.2663 86.2929 20.106 71.2842 20.106 52.8403C20.106 34.3964 35.2663 19.3877 53.8965 19.3877C72.5266 19.3877 87.6869 34.3964 87.6869 52.8403C87.6869 71.2842 72.5266 86.2929 53.8965 86.2929ZM53.8965 20.862C36.0853 20.862 21.5952 35.2073 21.5952 52.8403C21.5952 70.4733 36.0853 84.8185 53.8965 84.8185C71.7076 84.8185 86.1977 70.4733 86.1977 52.8403C86.1977 35.2073 71.7076 20.862 53.8965 20.862Z" fill="#FF6D6D"/>
</g>
</svg>
