<svg width="152" height="46" viewBox="0 0 152 46" fill="none" xmlns="http://www.w3.org/2000/svg">
<path d="M21.8368 9.20419L22.9537 8.9683C23.2367 8.9683 23.475 9.02727 23.6388 9.14522C23.8026 9.26316 23.8919 9.38111 23.8919 9.48431C23.8919 9.58752 23.8621 9.74969 23.8175 9.94136C23.7728 10.133 23.3558 12.1086 22.5814 15.8387C21.807 19.5687 21.2411 22.3552 20.8837 24.1834C22.6112 21.854 24.6365 18.9938 26.9448 15.588C29.2531 12.1823 30.6083 9.92661 30.9955 8.80612C31.1147 8.45228 31.2785 8.1869 31.4721 7.99524C31.6657 7.80358 31.8444 7.68563 31.9933 7.65614C32.1422 7.62666 32.3805 7.59717 32.6933 7.59717C33.006 7.59717 33.3783 7.67089 33.8102 7.80358C34.242 7.93627 34.4654 8.15741 34.4654 8.48177C34.4654 9.0715 33.5719 10.7965 31.7997 13.6272C30.0275 16.4579 27.9873 19.4655 25.6939 22.6501C23.4005 25.8347 21.4943 28.3558 19.9604 30.2134C19.6923 30.5378 19.3498 30.7147 18.9626 30.7147C18.5754 30.7147 18.1584 30.641 17.7265 30.5083C17.2947 30.3756 17.0713 30.1397 17.0713 29.7859C17.0713 28.6801 18.0542 23.343 20.0199 13.8041C18.3371 15.9566 16.2969 18.9643 13.8992 22.8123C11.3973 26.793 9.98259 29.2698 9.65496 30.2134C9.47625 30.7884 9.26776 31.1275 9.02948 31.216C8.86567 31.2897 8.68695 31.3192 8.50825 31.3192L7.30198 31.4519C7.0637 31.4519 6.85521 31.3929 6.64672 31.2602C6.45312 31.1275 6.34888 30.9948 6.34888 30.8474C6.34888 30.4493 6.91479 29.2404 8.03171 27.2353C9.14863 25.2302 10.474 23.0482 11.9781 20.6892C13.4823 18.3303 15.0459 16.0451 16.6841 13.8188C18.3222 11.5926 19.5881 10.0888 20.4816 9.33688C20.6603 9.1747 20.8688 9.10099 21.1071 9.10099L21.8368 9.20419Z" fill="#FF6D6D"/>
<path d="M39.737 19.2003C40.5114 19.2003 40.8986 19.4657 40.8986 19.9817C40.8986 20.2618 40.839 20.4682 40.705 20.6009C40.571 20.7336 40.288 21.1611 39.8562 21.913C39.4243 22.6502 38.9477 23.5938 38.4265 24.7585C37.9053 25.9085 37.5628 26.8963 37.4138 27.7072C37.3841 27.8104 37.3692 27.9431 37.3692 28.1347C37.3692 28.695 37.5181 28.9604 37.8308 28.9604C38.1436 28.9604 38.501 28.8129 38.9179 28.5328C39.3349 28.2379 39.7072 27.9431 40.0349 27.604C40.3625 27.2796 40.6752 26.9405 40.988 26.6014C41.3007 26.2623 41.4794 26.0559 41.539 26.0117C41.5986 25.9675 41.6879 25.938 41.807 25.938C42.0006 25.938 42.1198 26.0854 42.1645 26.3803C42.2091 26.6751 42.224 26.97 42.224 27.2944C42.224 27.6187 42.1942 27.8251 42.1347 27.9431C41.8368 28.518 41.1965 29.211 40.1838 30.0219C39.186 30.8328 38.2627 31.2308 37.4436 31.2308C36.6246 31.2308 36.014 30.9802 35.6417 30.4937C35.2694 30.0071 35.0609 29.4469 35.0609 28.8572C35.0609 28.2527 35.1651 27.7367 35.3736 27.2796C34.5248 28.3706 33.5567 29.2847 32.4696 30.0514C31.3676 30.8033 30.489 31.1866 29.789 31.1866C29.0891 31.1866 28.5381 30.9802 28.0913 30.5674C27.5254 30.0514 27.2573 29.3437 27.2573 28.4296C27.2573 27.5155 27.4658 26.6014 27.8828 25.6726C28.2998 24.7585 28.8359 23.9034 29.5061 23.1515C30.1762 22.3848 30.9208 21.6919 31.725 21.0727C33.4078 19.7605 34.9715 19.1118 36.4012 19.1118C36.9522 19.1118 37.399 19.2003 37.7415 19.3772C38.084 19.5541 38.3074 19.79 38.3967 20.0554C38.635 19.6868 38.8435 19.4657 39.0222 19.3625C39.1562 19.2445 39.4094 19.2003 39.737 19.2003ZM37.7117 20.881C35.9693 20.881 34.1673 21.8393 32.3058 23.756C31.6505 24.4489 31.04 25.2598 30.4741 26.2181C29.9081 27.1764 29.6401 27.8251 29.6401 28.179C29.6401 28.5328 29.7443 28.7097 29.9528 28.7097C30.2358 28.7097 31.0251 28.1495 32.3356 27.0437C33.6461 25.938 34.5099 25.1123 34.9268 24.5816C35.4034 23.9919 36.3267 22.7534 37.7117 20.881Z" fill="#FF6D6D"/>
<path d="M51.3234 11.2095L51.9488 11.3569C52.0382 11.3569 52.1275 11.4011 52.1871 11.4896C52.2616 11.5781 52.2914 11.6665 52.2914 11.7402C52.2914 11.8139 52.1871 12.0351 51.9637 12.3889C51.7403 12.7428 51.5021 13.1408 51.2042 13.5831C50.9064 14.0254 50.7575 14.2761 50.7426 14.3203C51.5318 14.2613 52.0978 14.2319 52.4254 14.2319C52.753 14.2319 52.9764 14.2613 53.1104 14.3056C53.2296 14.3498 53.3785 14.4825 53.5274 14.6889C53.6912 14.8953 53.8253 15.0575 53.9593 15.1607C54.0933 15.2639 54.1529 15.4261 54.1529 15.6325C54.1529 15.8389 54.0188 16.0305 53.7657 16.1632C53.5125 16.3107 53.2296 16.3991 52.9317 16.4286C50.5639 16.6645 49.2682 16.7824 49.03 16.7972C48.2109 18.0504 47.0493 19.9965 45.5749 22.6355C44.1006 25.2746 43.3113 26.9406 43.222 27.604C43.1773 27.9137 43.1624 28.1495 43.1624 28.3412C43.1624 28.7393 43.3709 28.9309 43.7879 28.9309C44.2049 28.9309 44.6665 28.7688 45.1729 28.4592C45.6792 28.1348 46.1557 27.7957 46.5727 27.4271C47.7194 26.4246 48.33 25.9086 48.4045 25.9086C48.6725 25.9086 48.8066 26.3656 48.8066 27.2649C48.8066 27.7515 48.5832 28.1938 48.1215 28.5918C47.094 29.4617 46.2302 30.1252 45.5303 30.5675C44.8303 31.0098 44.1304 31.2309 43.4156 31.2309C43.2667 31.2309 43.1177 31.2162 42.9837 31.1867C42.1646 31.0392 41.5689 30.7444 41.1966 30.3021C40.8094 29.8598 40.6307 29.27 40.6307 28.5329C40.6307 27.7957 40.8541 26.8816 41.3009 25.8201C41.7477 24.7586 42.2987 23.6233 42.9688 22.4291C44.0708 20.4683 45.1729 18.6401 46.26 16.9299L45.6792 17.0036C44.5027 17.1363 43.8177 17.1953 43.6241 17.1953H43.49C43.1922 17.1953 42.9092 17.1363 42.6412 17.0183C42.3731 16.9004 42.2242 16.753 42.2242 16.5908C42.2242 16.4139 42.2987 16.2517 42.4476 16.0895C42.5965 15.9273 42.6859 15.7946 42.7156 15.7062C42.7901 15.485 43.0582 15.2344 43.5198 14.969C43.9815 14.7036 44.324 14.5562 44.5623 14.5415C44.8006 14.5267 45.0239 14.512 45.2473 14.4972C45.4707 14.4825 45.709 14.4825 45.977 14.4677C46.2451 14.453 46.4536 14.453 46.6025 14.4383L47.9726 14.3793C48.8215 13.1114 49.4172 12.2857 49.7299 11.9319C50.0575 11.5633 50.2362 11.3716 50.2809 11.3422C50.3256 11.3127 50.4298 11.2832 50.5936 11.2832L51.3234 11.2095Z" fill="#FF6D6D"/>
<path d="M60.482 25.9377C60.6756 25.9377 60.7947 26.0851 60.8394 26.38C60.8841 26.6748 60.899 26.9697 60.899 27.2941C60.899 27.6184 60.8692 27.8248 60.8096 27.9428C60.5118 28.503 59.8714 29.1959 58.8736 30.0068C57.8759 30.8177 56.9227 31.2305 56.0292 31.2305C55.4782 31.2305 54.9719 31.0683 54.4953 30.744C54.0336 30.4196 53.7954 29.8447 53.7954 29.0338C53.7954 28.2229 54.0188 27.412 54.4506 26.6306C51.919 29.7709 49.9532 31.3337 48.5086 31.3337C47.9427 31.3337 47.4811 31.1273 47.1237 30.7293C46.7662 30.3312 46.6024 29.9184 46.6024 29.4761C46.6024 29.0485 46.662 28.6062 46.7811 28.1492C46.9003 27.6921 47.0343 27.2793 47.1683 26.9107C47.3024 26.5422 47.5108 26.0999 47.7789 25.5691C48.047 25.0383 48.2555 24.655 48.3746 24.4044C48.4937 24.1537 48.7171 23.7999 49.015 23.3134C49.3128 22.8268 49.6851 22.1634 50.1617 21.3378C50.6382 20.5121 51.0254 19.8929 51.3381 19.4948C51.6509 19.0968 51.9487 18.8904 52.2466 18.8904C52.5444 18.8904 52.7976 19.0083 53.021 19.2442C53.2444 19.4801 53.3635 19.6865 53.3635 19.8339C53.3635 19.9814 53.021 20.6596 52.3359 21.8685C50.3255 25.4806 49.3128 27.5742 49.3128 28.1787C49.3128 28.3261 49.3724 28.3998 49.4766 28.3998C49.9681 28.3998 51.1892 27.353 53.1252 25.2595C55.0612 23.1659 56.193 21.8243 56.5057 21.2346C56.8185 20.6448 57.1014 20.1435 57.3993 19.7455C57.6822 19.3474 57.9056 19.0968 58.0546 19.0083C58.4864 18.7282 59.0523 18.5808 59.7523 18.5513C59.8714 18.5513 59.9459 18.5513 60.0054 18.566C60.065 18.5808 60.1395 18.6692 60.2139 18.8166C60.2884 18.9641 60.3331 19.0968 60.3331 19.2C60.2437 19.4801 59.8416 20.232 59.1119 21.4557C58.3971 22.6794 57.995 23.3723 57.9205 23.5198C56.7143 25.9819 56.1186 27.5889 56.1186 28.3261C56.1186 28.7536 56.2824 28.9601 56.61 28.9601C57.2057 28.8863 57.9205 28.4145 58.7545 27.5594C59.0672 27.2498 59.3651 26.9255 59.6629 26.6011C59.9608 26.2768 60.1544 26.0851 60.2139 26.0409C60.2884 25.9672 60.3777 25.9377 60.482 25.9377Z" fill="#FF6D6D"/>
<path d="M64.905 22.4439C67.3026 19.7458 69.3578 18.3894 71.0406 18.3894C71.4576 18.3894 71.8001 18.5074 72.0682 18.758C72.3362 19.0087 72.4702 19.3183 72.4702 19.7163C72.4702 20.1144 72.1873 20.7631 71.6214 21.6919C71.0555 22.606 70.5343 23.3874 70.0577 24.0214C69.8045 24.3457 69.5216 24.5079 69.194 24.5079C68.8812 24.5079 68.6281 24.39 68.4493 24.1541C68.2706 23.9182 68.1813 23.6528 68.1813 23.3432C68.1813 22.6503 68.5536 21.8541 69.3131 20.9843L69.2833 20.9548C68.9408 20.9843 68.1217 21.6477 66.7814 22.9156C65.456 24.1983 64.3242 25.3483 63.386 26.3508C62.4627 27.3681 61.45 28.5918 60.348 30.0514C60.0352 30.479 59.7672 30.7001 59.5438 30.7001C59.3204 30.7001 59.0375 30.6264 58.68 30.4937C58.3226 30.361 58.0992 30.2578 58.0248 30.1988C57.9503 30.1399 57.9056 30.0367 57.9056 29.8892C57.9056 29.7565 57.9503 29.5796 58.0248 29.4027C58.0992 29.211 58.2631 28.9457 58.4716 28.6066C58.68 28.2675 59.0226 27.7072 59.4693 26.9406C59.9161 26.1739 60.6011 25.0092 61.5393 23.4611C62.4776 21.9131 63.0286 20.9695 63.2222 20.6452C63.6094 19.9817 63.9221 19.4952 64.1753 19.2003C64.6369 18.6253 65.4113 18.3452 66.4985 18.3452C66.7367 18.3452 66.8708 18.4927 66.8708 18.8023C66.8708 19.274 66.424 20.1734 65.5454 21.4708L64.905 22.4439Z" fill="#FF6D6D"/>
<path d="M81.3313 19.3775C81.3313 20.0409 81.0632 20.6306 80.5122 21.1319C79.9612 21.6332 79.3506 21.8838 78.6507 21.8838C78.4273 21.8838 78.2784 21.8249 78.2039 21.7217C78.1295 21.6185 78.0997 21.471 78.0997 21.3088C78.0997 21.1467 78.1146 20.9697 78.1592 20.8076C77.7869 20.9255 77.3848 21.1172 76.9381 21.3678C76.4913 21.6185 75.9403 21.987 75.285 22.4883C74.6298 22.9896 74.3022 23.3434 74.3022 23.5941C74.3022 23.6678 74.4213 23.712 74.6596 23.712C74.8978 23.712 75.2702 23.6235 75.7616 23.4614C76.253 23.2992 76.6104 23.2107 76.804 23.2107C76.9976 23.2107 77.1317 23.2255 77.1912 23.2402C77.3253 23.3139 77.4593 23.4614 77.6231 23.6973C77.772 23.9332 77.8465 24.1248 77.8465 24.2575C77.8465 24.3902 77.7125 24.5671 77.4444 24.7883C77.1764 25.0094 76.8785 25.1716 76.5509 25.2895C76.2084 25.4075 75.985 25.4959 75.8807 25.5549C73.7363 26.7491 72.664 27.56 72.664 28.0023C72.664 28.7837 73.3342 29.1818 74.6894 29.1818C75.5531 29.1818 76.4317 28.9164 77.2955 28.3709C78.0401 27.9138 78.7103 27.4421 79.306 26.9555C79.9016 26.4837 80.2739 26.1889 80.4378 26.0709C80.6016 25.953 80.7207 25.9088 80.7952 25.9088C81.0632 25.9088 81.1973 26.2036 81.1973 26.7934C81.1973 27.3831 81.1675 27.7664 81.093 27.9433C81.0186 28.135 80.825 28.3561 80.4824 28.6363C78.3082 30.3907 76.2382 31.2753 74.3022 31.2753C73.2597 31.2753 72.4406 31.1279 71.8151 30.8478C70.6684 30.3318 70.1025 29.5504 70.1025 28.4888C70.1025 27.103 71.0705 26.0414 73.0214 25.3338C72.6342 25.1568 72.3811 24.9504 72.2768 24.6703C72.1577 24.4049 72.113 23.9774 72.113 23.3876C72.113 22.7979 72.3959 22.1787 72.947 21.5153C73.498 20.8518 74.183 20.3063 74.9872 19.8935C76.7743 18.9352 78.3826 18.4634 79.7825 18.4634C80.125 18.4634 80.4526 18.5371 80.8101 18.6993C81.1675 18.8614 81.3313 19.0826 81.3313 19.3775Z" fill="#FF6D6D"/>
<path d="M116.09 9.11577H116.283C116.343 9.11577 116.387 9.11577 116.402 9.13052C116.417 9.14526 116.432 9.14526 116.462 9.16001C116.492 9.16001 116.507 9.17475 116.536 9.20423C116.581 9.24846 116.656 9.29269 116.745 9.33692C116.864 9.42538 116.924 9.52859 116.924 9.64653C116.924 9.76448 116.804 10.0151 116.566 10.3984C116.328 10.7818 115.717 11.7106 114.72 13.2144C112.441 16.6644 110.401 19.8784 108.599 22.8271C105.486 27.9577 103.908 30.5378 103.878 30.5673C103.848 30.5968 103.833 30.6263 103.818 30.6558C103.803 30.7147 103.774 30.7442 103.699 30.7442L103.491 30.7L103.074 30.8032L102.835 30.759L102.582 30.8032H102.493L101.644 30.9211C101.138 30.9211 100.885 30.7442 100.885 30.4051C100.885 30.2577 100.929 30.0808 101.019 29.8744C101.331 29.1372 102.925 26.4687 105.784 21.8393C103.908 21.8835 102.046 21.913 100.214 21.913L96.9382 21.8982C96.4021 22.7533 95.6574 23.9623 94.7192 25.5398C92.6939 28.975 91.6216 30.7 91.4876 30.7295C91.3536 30.759 91.2493 30.7884 91.16 30.7884C91.0706 30.7884 90.9962 30.7442 90.9366 30.641C90.8621 30.5526 90.8175 30.4936 90.7877 30.4936C90.7579 30.4936 90.7132 30.5083 90.6239 30.5526C90.5494 30.5968 90.4303 30.6115 90.2665 30.6115L89.909 30.5968L89.775 30.5083C89.7601 30.5083 89.7452 30.5231 89.7303 30.5526C89.7154 30.582 89.6708 30.5968 89.6112 30.5968C89.1793 30.5968 88.9559 30.4199 88.9559 30.0513C88.9559 29.8154 89.0453 29.491 89.2091 29.093C89.3878 28.6949 89.6112 28.2673 89.8942 27.8103C90.1771 27.3533 90.8919 26.2475 92.0684 24.5225C93.23 22.7976 93.8108 21.9277 93.8108 21.913C93.6172 21.8982 93.3938 21.8982 93.1406 21.8835C92.6194 21.8835 92.262 21.8687 92.0386 21.8245C91.4578 21.7213 91.0557 21.2495 90.8473 20.4092C90.7281 19.9963 90.6834 19.731 90.6983 19.5983C90.6983 19.3329 90.8175 19.1855 91.0557 19.1855L91.4578 19.2887C91.6663 19.3034 92.1429 19.3181 92.9173 19.3624C93.6917 19.4066 94.2427 19.4214 94.5852 19.4214L95.4489 19.3919C96.7744 17.3425 98.3529 15.0131 100.2 12.4183C98.8593 13.5093 97.3701 14.0548 95.7319 14.0548C94.9575 14.0548 94.2873 13.8779 93.7363 13.5093C93.1704 13.1407 92.9024 12.6689 92.9024 12.1087C92.9024 11.5484 93.1109 11.1061 93.5427 10.767C93.9746 10.4427 94.3767 10.2805 94.7639 10.2805C95.1511 10.2805 95.3447 10.3395 95.3447 10.4574C95.3447 10.5016 95.2851 10.5459 95.1809 10.5901C95.0766 10.6491 95.0171 10.6933 95.0171 10.7375C95.0171 10.8997 95.1958 11.0471 95.5532 11.1651C95.9106 11.283 96.3127 11.3568 96.7595 11.3568C97.2062 11.3568 97.7423 11.2241 98.3976 10.9734C99.0529 10.7228 99.723 10.3837 100.423 9.98563C101.406 9.42538 102.18 8.9536 102.746 8.58501C103.074 8.42284 103.372 8.34912 103.669 8.34912C103.967 8.34912 104.161 8.37861 104.295 8.45232C104.429 8.5113 104.518 8.58502 104.578 8.64399C104.637 8.70296 104.712 8.79142 104.771 8.89463C104.846 8.99783 104.906 9.08629 104.98 9.13052C105.04 9.18949 105.084 9.24846 105.084 9.32218C105.084 9.3959 105.04 9.4991 104.965 9.66128C104.891 9.80871 104.503 10.4279 103.803 11.5042C103.104 12.5805 102.195 13.9516 101.093 15.6176C99.9911 17.2836 99.1869 18.5073 98.6806 19.3034C101.406 19.3034 104.34 19.2592 107.497 19.156C111.339 13.1554 113.364 10.0151 113.573 9.72025C113.781 9.42538 113.975 9.23372 114.154 9.14526C114.332 9.0568 114.541 9.01257 114.794 9.01257L116.09 9.11577Z" fill="#FF6D6D"/>
<path d="M121.064 19.1709C121.377 19.1709 121.689 19.3036 122.002 19.5837C122.33 19.8638 122.479 20.2766 122.479 20.8369C122.479 21.3971 122.285 22.1195 121.883 23.0189C121.481 23.9035 120.945 24.8176 120.245 25.7464C119.56 26.6605 118.785 27.5303 117.966 28.3412C117.132 29.1521 116.239 29.8155 115.286 30.3316C114.318 30.8476 113.454 31.113 112.665 31.113C111.875 31.113 111.25 30.8623 110.773 30.3758C110.297 29.8893 110.058 29.2111 110.058 28.3412C110.058 27.4714 110.282 26.4983 110.714 25.4515C111.146 24.39 111.697 23.4612 112.382 22.6503C113.067 21.8394 113.796 21.117 114.601 20.4683C116.254 19.1414 117.713 18.4927 118.964 18.4927C119.53 18.4927 119.947 18.6254 120.23 18.9055C120.334 18.994 120.379 19.0824 120.379 19.1414V19.2298C120.543 19.1709 120.766 19.1709 121.064 19.1709ZM119.53 21.176H119.426C119.068 21.176 118.89 20.9253 118.89 20.4093C118.145 20.6452 117.371 21.0728 116.551 21.6772C115.732 22.2817 115.003 23.0041 114.362 23.8298C113.052 25.481 112.397 26.8816 112.382 28.0169C112.382 28.5771 112.59 28.8572 113.007 28.8572C113.424 28.8572 114.05 28.5771 114.869 28.0463C115.688 27.5156 116.507 26.7342 117.326 25.7169C118.13 24.7144 118.741 23.8298 119.143 23.0926C119.545 22.3554 119.753 21.8542 119.753 21.574C119.738 21.3086 119.664 21.176 119.53 21.176Z" fill="#FF6D6D"/>
<path d="M122.151 30.7736L121.406 30.7441H121.138C121.034 30.7146 120.93 30.6556 120.81 30.5672C120.691 30.4787 120.602 30.405 120.542 30.3755C120.483 30.346 120.453 30.2576 120.453 30.1544C120.453 30.0512 120.498 29.8595 120.572 29.6089C122.553 25.2891 124.474 21.8244 126.335 19.2443C126.544 18.9642 126.872 18.743 127.318 18.5956C127.765 18.4482 128.212 18.3745 128.644 18.3745C128.897 18.3745 129.031 18.5661 129.031 18.9642C129.031 19.0821 128.986 19.2296 128.912 19.4065C128.837 19.5982 128.629 19.893 128.301 20.3206C127.974 20.7481 127.586 21.2347 127.14 21.7654C126.693 22.2962 126.44 22.6205 126.38 22.709C127.78 21.2789 129.031 20.2174 130.163 19.5097C131.295 18.8168 132.099 18.4629 132.605 18.4629C133.111 18.4629 133.499 18.6103 133.767 18.8905C134.035 19.1706 134.169 19.4802 134.169 19.8046C134.169 20.1289 134.139 20.409 134.094 20.6154C134.05 20.8366 133.96 21.0577 133.841 21.2936C133.722 21.5295 133.618 21.7359 133.528 21.8981C133.439 22.0603 133.29 22.2814 133.097 22.5468C132.888 22.8122 132.754 23.0039 132.68 23.1071C132.605 23.2103 132.441 23.4019 132.203 23.682C131.965 23.9622 131.831 24.1243 131.816 24.1538C132.099 23.8737 132.501 23.4609 133.007 22.9007C133.514 22.3404 133.945 21.8834 134.303 21.5148C134.66 21.1462 135.092 20.7186 135.628 20.2469C136.164 19.7751 136.656 19.3917 137.103 19.1116C138.205 18.4334 139.321 18.0796 140.453 18.0796C140.84 18.0796 141.168 18.1975 141.436 18.4482C141.704 18.6988 141.838 18.9789 141.838 19.318C141.838 19.6571 141.421 20.468 140.602 21.7359C139.783 23.0039 138.949 24.2865 138.13 25.5692C137.311 26.8519 136.894 27.6627 136.894 28.0018C136.894 28.4589 136.983 28.739 137.147 28.8275C137.326 28.9159 137.534 28.9454 137.773 28.9307C138.011 28.9159 138.368 28.7538 138.8 28.4589C139.247 28.164 139.634 27.8692 139.977 27.5448C140.543 27.0435 141.049 26.557 141.54 26.0852C141.645 25.9968 141.749 25.9525 141.883 25.9525C142.077 25.9525 142.196 26.1 142.24 26.3948C142.285 26.6897 142.3 26.9846 142.3 27.3089C142.3 27.6333 142.27 27.8397 142.211 27.9576C141.913 28.5179 141.257 29.2108 140.26 30.0364C139.247 30.8473 138.279 31.2601 137.356 31.2601C137.237 31.2601 137.162 31.2601 137.117 31.2454C136.075 31.1422 135.345 30.862 134.943 30.3903C134.541 29.9185 134.347 29.3582 134.347 28.7243C134.347 28.0903 134.571 27.2942 135.018 26.3801C135.464 25.466 135.941 24.6256 136.477 23.8885C137.013 23.1513 137.49 22.4731 137.937 21.8686C138.383 21.2641 138.607 20.9398 138.607 20.8956C138.607 20.8513 138.562 20.8218 138.488 20.8218C138.175 20.8218 137.475 21.3231 136.373 22.3404C134.511 24.0654 132.903 25.7314 131.548 27.3237C131.19 27.7512 130.341 28.8127 129.016 30.5377C128.867 30.7441 128.614 30.8473 128.286 30.8473C127.959 30.8473 127.616 30.7883 127.259 30.6556C126.901 30.5229 126.723 30.3608 126.723 30.1691C126.723 30.0659 127.527 28.6505 129.15 25.923C130.773 23.1955 131.578 21.7064 131.578 21.4706C131.578 21.2199 131.429 21.102 131.131 21.102C130.833 21.102 130.207 21.5443 129.269 22.4289C126.693 24.8615 124.697 27.2942 123.283 29.6973C123.193 29.8448 123.014 30.0659 122.746 30.3608C122.478 30.6556 122.24 30.7736 122.151 30.7736Z" fill="#FF6D6D"/>
<path d="M151.682 19.3775C151.682 20.0409 151.414 20.6306 150.863 21.1319C150.312 21.6332 149.702 21.8838 149.002 21.8838C148.778 21.8838 148.629 21.8249 148.555 21.7217C148.481 21.6185 148.451 21.471 148.451 21.3088C148.451 21.1467 148.466 20.9697 148.51 20.8076C148.138 20.9255 147.736 21.1172 147.289 21.3678C146.842 21.6185 146.291 21.987 145.636 22.4883C144.981 22.9896 144.653 23.3434 144.653 23.5941C144.653 23.6678 144.772 23.712 145.011 23.712C145.249 23.712 145.621 23.6235 146.113 23.4614C146.604 23.2992 146.962 23.2107 147.155 23.2107C147.349 23.2107 147.483 23.2255 147.542 23.2402C147.676 23.3139 147.81 23.4614 147.974 23.6973C148.123 23.9332 148.198 24.1248 148.198 24.2575C148.198 24.3902 148.064 24.5671 147.795 24.7883C147.527 25.0094 147.23 25.1716 146.902 25.2895C146.559 25.4075 146.336 25.4959 146.232 25.5549C144.087 26.7491 143.015 27.56 143.015 28.0023C143.015 28.7837 143.685 29.1818 145.04 29.1818C145.904 29.1818 146.783 28.9164 147.647 28.3709C148.391 27.9138 149.061 27.4421 149.657 26.9555C150.253 26.4837 150.625 26.1889 150.789 26.0709C150.953 25.953 151.072 25.9088 151.146 25.9088C151.414 25.9088 151.548 26.2036 151.548 26.7934C151.548 27.3831 151.519 27.7664 151.444 27.9433C151.37 28.135 151.176 28.3561 150.834 28.6363C148.659 30.3907 146.589 31.2753 144.653 31.2753C143.611 31.2753 142.792 31.1279 142.166 30.8478C141.02 30.3318 140.454 29.5504 140.454 28.4888C140.454 27.103 141.422 26.0414 143.372 25.3338C142.985 25.1568 142.732 24.9504 142.628 24.6703C142.509 24.4049 142.464 23.9774 142.464 23.3876C142.464 22.7979 142.747 22.1787 143.298 21.5153C143.849 20.8518 144.534 20.3063 145.338 19.8935C147.125 18.9352 148.734 18.4634 150.134 18.4634C150.476 18.4634 150.804 18.5371 151.161 18.6993C151.519 18.8614 151.682 19.0826 151.682 19.3775Z" fill="#FF6D6D"/>
<path d="M0.719727 34.8574C4.63639 36.4791 8.6275 37.7323 12.6931 38.6906C16.7289 39.6932 20.8391 40.4009 24.9494 40.8431C27.0045 41.1233 29.0746 41.1528 31.1148 41.3444C33.1848 41.3592 35.2399 41.5213 37.2951 41.4034L40.3778 41.3297C41.4053 41.3149 42.4329 41.1822 43.4604 41.1233C44.488 41.0348 45.5156 40.9906 46.5282 40.8579L49.5812 40.4303C53.6765 39.988 57.6528 39.0445 61.6141 37.9092C65.6201 36.8182 69.4027 35.3734 73.4087 33.8696C77.5041 32.3805 81.942 31.4074 86.4395 31.8792C88.6584 32.1593 90.8922 32.867 92.7091 34.1644C94.5408 35.4471 95.8514 37.2753 96.6853 39.1919C95.4344 37.4817 93.8707 36.0811 92.0687 35.2112C90.2668 34.3413 88.2861 33.9875 86.3203 34.0465C82.3441 34.1055 78.4274 35.4176 74.749 37.0689C71.0111 38.897 66.9604 40.5483 62.8799 41.9194C58.7697 43.2316 54.5254 44.2783 50.2215 44.8091C41.6585 45.9296 32.887 45.9443 24.4282 44.2489C20.1839 43.4822 16.0438 42.288 12.0378 40.7694C8.06159 39.1919 4.17473 37.349 0.719727 34.8574Z" fill="#FF6D6D"/>
<path d="M143.134 10.31C139.813 8.9094 136.433 7.81839 133.007 6.96328C129.597 6.06394 126.142 5.42998 122.672 4.98768C120.945 4.7223 119.187 4.66333 117.46 4.45692C115.718 4.41269 113.99 4.23577 112.248 4.30948C111.384 4.32423 110.505 4.32423 109.641 4.30948C108.778 4.30948 107.899 4.39794 107.035 4.42743C106.172 4.4864 105.293 4.50115 104.429 4.58961L101.838 4.89922C98.3681 5.17934 95.0024 5.88702 91.6368 6.75688C88.2265 7.56776 84.9948 8.71774 81.5547 9.86772C78.0253 11.0324 74.198 11.7401 70.3558 11.2094C68.4645 10.8997 66.5582 10.2363 65.0541 9.05683C63.5202 7.89211 62.4778 6.29983 61.8374 4.63384C62.8948 6.09343 64.2053 7.28764 65.7094 8.0248C67.2135 8.76197 68.8665 9.07158 70.5196 9.05683C73.8554 9.05683 77.1615 7.99531 80.2889 6.66842C83.4758 5.1646 86.9755 3.8377 90.4603 2.74669C93.9749 1.69992 97.6383 0.903779 101.302 0.520453C108.614 -0.246199 116.09 -0.06928 123.253 1.61146C126.842 2.36337 130.342 3.51335 133.692 4.9287C137.058 6.37355 140.305 8.05429 143.134 10.31Z" fill="#FF6D6D"/>
</svg>
