<svg width="123" height="50" viewBox="0 0 123 50" fill="none" xmlns="http://www.w3.org/2000/svg">
<path d="M0.682495 30.6488V0.484009H18.6277V30.6341H0.682495V30.6488ZM16.4534 23.631L16.9151 20.299L15.2471 20.1368L14.7408 22.7022C13.6983 23.2182 12.4176 23.4688 10.8837 23.4688C8.79878 23.4688 7.14573 22.8201 5.93945 21.508C4.71829 20.1958 4.1226 18.4709 4.1226 16.3183C4.1226 14.2248 4.71829 12.4998 5.89478 11.1434C7.07127 9.78704 8.6201 9.10885 10.5412 9.10885C11.5241 9.10885 12.358 9.2268 13.0282 9.44794C13.6983 9.6691 14.3089 9.96396 14.8897 10.3473L15.3812 12.8831L17.0789 12.721L16.5874 9.38897C15.8726 8.7845 15.0237 8.29797 14.0408 7.91464C13.0579 7.54606 11.8368 7.35439 10.3923 7.35439C8.67966 7.35439 7.20532 7.76721 5.96927 8.60758C4.73321 9.44795 3.76521 10.5537 3.08017 11.9248C2.39513 13.3107 2.0526 14.7998 2.0526 16.392C2.0526 18.9132 2.84188 21.0215 4.42046 22.7022C5.99904 24.3829 8.05416 25.2233 10.6007 25.2233C13.1026 25.2233 15.0535 24.6925 16.4534 23.631Z" fill="#FF6D6D"/>
<path d="M24.7186 30.6488V0.484009H32.4328V30.6341H24.7186V30.6488ZM25.5377 24.9579H31.6286V23.4394H29.5288V6.60249H25.5079V8.12105H27.6375V23.4394H25.5377V24.9579Z" fill="#FF6D6D"/>
<path d="M38.5238 30.6488V0.484009H52.0758V30.6341H38.5238V30.6488ZM40.981 13.9889L40.5492 16.7311L42.1128 16.9228L42.5745 14.8735C43.2446 14.5491 44.0041 14.387 44.8977 14.387C45.9699 14.387 46.6997 14.6523 47.072 15.1831C47.4443 15.7139 47.623 16.4068 47.623 17.2619V18.3234C47.2954 18.2939 46.9528 18.2645 46.5805 18.2497C46.2082 18.235 45.8508 18.2202 45.4934 18.2202C44.1531 18.2202 42.8723 18.4561 41.681 18.9279C40.4896 19.3997 39.8939 20.3875 39.8939 21.8766C39.8939 23.1445 40.296 24.0143 41.1151 24.4861C41.9342 24.9727 42.7383 25.2086 43.5276 25.2086C44.4956 25.2086 45.3296 24.9579 46.0146 24.4566C46.6996 23.9554 47.2358 23.3951 47.623 22.7464V22.8054C47.6528 24.4124 48.3825 25.2086 49.8121 25.2086C50.3632 25.2086 50.8844 25.0759 51.3758 24.8105L51.346 23.5868C51.1078 23.69 50.8397 23.749 50.5419 23.749C49.8568 23.749 49.5143 23.3214 49.5143 22.4663V16.8196C49.5143 14.1658 48.0846 12.8389 45.2253 12.8389C44.436 12.8389 43.6914 12.9274 42.9915 13.1043C42.2766 13.296 41.6065 13.5908 40.981 13.9889ZM47.6081 20.5054C47.5336 21.4785 47.1315 22.2599 46.4018 22.8201C45.6721 23.3951 44.8977 23.6752 44.0637 23.6752C43.5425 23.6752 43.0362 23.5278 42.5596 23.2477C42.0682 22.9676 41.8299 22.4368 41.8299 21.6702C41.8299 20.7413 42.2022 20.1516 42.917 19.8715C43.6468 19.5913 44.4509 19.4587 45.3593 19.4587C45.7614 19.4587 46.1486 19.4734 46.5209 19.5176C46.8932 19.5471 47.2655 19.5766 47.5932 19.5913V20.5054H47.6081Z" fill="#FF6D6D"/>
<path d="M58.1816 30.6488V0.484009H70.4975V30.6341H58.1816V30.6488ZM69.2019 21.5227C69.2019 20.5792 68.9487 19.8862 68.4424 19.4292C67.936 18.9721 67.3255 18.6625 66.5808 18.4856C65.8362 18.3087 65.1065 18.1612 64.3768 18.0433C63.6471 17.9254 63.0216 17.7337 62.5153 17.4831C62.009 17.2324 61.7558 16.7901 61.7558 16.1562C61.7558 15.5517 61.994 15.1094 62.4855 14.8145C62.9769 14.5196 63.5875 14.387 64.347 14.387C65.2256 14.387 66.0448 14.5786 66.8043 14.9767L67.1021 16.8933L68.6658 16.7017L68.3679 13.9299C67.8616 13.6203 67.251 13.3697 66.5213 13.1633C65.7916 12.9569 65.0172 12.8389 64.1832 12.8389C63.0812 12.8389 62.0685 13.1043 61.1303 13.6203C60.1921 14.1363 59.7304 15.0209 59.7304 16.2888C59.7304 17.2177 59.9836 17.8959 60.4899 18.3234C60.9963 18.7657 61.6218 19.0606 62.3813 19.2375C63.1408 19.4144 63.8853 19.5619 64.63 19.6946C65.3746 19.8125 66.0001 20.0189 66.5064 20.2843C67.0127 20.5497 67.2659 21.0067 67.2659 21.6702C67.2659 22.3483 66.9382 22.8496 66.283 23.174C65.6277 23.4983 64.8831 23.6605 64.0343 23.6605C63.0812 23.6605 62.1876 23.4688 61.3686 23.0708L61.443 21.4932L59.9389 21.3311L59.5666 24.0291C60.0878 24.3682 60.7729 24.6483 61.6068 24.8695C62.4408 25.0906 63.2748 25.2086 64.1236 25.2086C65.5682 25.2086 66.7745 24.8842 67.7425 24.2207C68.7105 23.5868 69.2019 22.6727 69.2019 21.5227Z" fill="#FF6D6D"/>
<path d="M76.5881 30.6488V0.484009H88.904V30.6341H76.5881V30.6488ZM87.6083 21.5227C87.6083 20.5792 87.3552 19.8862 86.8488 19.4292C86.3425 18.9721 85.7319 18.6625 84.9873 18.4856C84.2427 18.3087 83.513 18.1612 82.7833 18.0433C82.0535 17.9254 81.4281 17.7337 80.9217 17.4831C80.4154 17.2324 80.1622 16.7901 80.1622 16.1562C80.1622 15.5517 80.4005 15.1094 80.8919 14.8145C81.3834 14.5196 81.9939 14.387 82.7535 14.387C83.6321 14.387 84.4512 14.5786 85.2107 14.9767L85.5086 16.8933L87.0722 16.7017L86.7744 13.9299C86.268 13.6203 85.6575 13.3697 84.9278 13.1633C84.198 12.9569 83.4236 12.8389 82.5897 12.8389C81.4876 12.8389 80.475 13.1043 79.5368 13.6203C78.5986 14.1363 78.1369 15.0209 78.1369 16.2888C78.1369 17.2177 78.3901 17.8959 78.8964 18.3234C79.4027 18.7657 80.0283 19.0606 80.7878 19.2375C81.5473 19.4144 82.2918 19.5619 83.0364 19.6946C83.781 19.8125 84.4065 20.0189 84.9128 20.2843C85.4192 20.5497 85.6724 21.0067 85.6724 21.6702C85.6724 22.3483 85.3448 22.8496 84.6895 23.174C84.0343 23.4983 83.2896 23.6605 82.4408 23.6605C81.4877 23.6605 80.5941 23.4688 79.775 23.0708L79.8495 21.4932L78.3454 21.3311L77.9731 24.0291C78.4943 24.3682 79.1794 24.6483 80.0133 24.8695C80.8473 25.0906 81.6813 25.2086 82.5301 25.2086C83.9747 25.2086 85.1809 24.8842 86.1489 24.2207C87.1169 23.5868 87.6083 22.6727 87.6083 21.5227Z" fill="#FF6D6D"/>
<path d="M94.9952 30.6488V0.484009H103.112V30.6341H94.9952V30.6488ZM96.1866 24.9579H102.278V23.4394H100.178V13.0895H96.142V14.6081H98.3013V23.4394H96.2015V24.9579H96.1866ZM98.0929 7.59029V10.0229H100.148V7.59029H98.0929Z" fill="#FF6D6D"/>
<path d="M109.202 30.6488V0.484009H122.173V30.6341H109.202V30.6488ZM121.012 20.9625L119.389 20.6086C119.031 22.6137 117.944 23.6163 116.157 23.6163C114.966 23.6163 114.057 23.2182 113.432 22.4221C112.806 21.6259 112.493 20.5054 112.493 19.0901C112.493 17.8074 112.776 16.7164 113.327 15.8023C113.878 14.8882 114.802 14.4459 116.082 14.4459C117.065 14.4459 117.929 14.6671 118.644 15.1094L119.106 17.1145L120.669 16.9228L120.208 14.0626C119.597 13.6056 118.957 13.2812 118.287 13.1043C117.616 12.9274 116.887 12.8389 116.097 12.8389C114.236 12.8389 112.821 13.4876 111.898 14.785C110.96 16.0824 110.498 17.5568 110.498 19.1933C110.498 21.0952 110.989 22.5842 111.987 23.631C112.97 24.6925 114.295 25.2233 115.948 25.2233C117.602 25.2233 118.823 24.7663 119.597 23.8669C120.372 22.9528 120.848 21.9945 121.012 20.9625Z" fill="#FF6D6D"/>
<path d="M8.44142 47.1175C8.09889 47.7368 7.59254 48.2233 6.93729 48.5624C6.26713 48.9015 5.47784 49.0784 4.55452 49.0784H1.88879V40.7632H4.55452C5.47784 40.7632 6.28203 40.9254 6.93729 41.2645C7.59254 41.6036 8.09889 42.0753 8.44142 42.7093C8.78394 43.3433 8.94775 44.0657 8.94775 44.9208C8.94775 45.7612 8.78394 46.4983 8.44142 47.1175ZM6.96705 47.2797C7.54785 46.7195 7.83083 45.9381 7.83083 44.9208C7.83083 43.9035 7.54785 43.1221 6.96705 42.5619C6.38626 42.0016 5.55229 41.7215 4.45026 41.7215H2.94618V48.1201H4.45026C5.55229 48.1201 6.38626 47.84 6.96705 47.2797Z" fill="#FF6D6D"/>
<path d="M14.4729 41.633V44.4785H17.6599V45.3041H14.4729V48.2086H18.0173V49.0784H13.3857V40.7632H18.0173V41.633H14.4729Z" fill="#FF6D6D"/>
<path d="M27.4291 48.0165C27.2355 48.3556 26.9525 48.6357 26.5653 48.8421C26.1781 49.0485 25.7015 49.1665 25.1208 49.1665C24.5697 49.1665 24.0634 49.0633 23.6315 48.8716C23.1997 48.6652 22.8572 48.3998 22.5891 48.046C22.3359 47.6921 22.187 47.2941 22.1423 46.8518H23.3039C23.3337 47.0877 23.4081 47.3236 23.5422 47.5447C23.6762 47.7659 23.8847 47.9575 24.1379 48.1049C24.391 48.2524 24.7038 48.3261 25.0761 48.3261C25.5526 48.3261 25.925 48.2082 26.1781 47.9428C26.4313 47.6774 26.5653 47.3678 26.5653 46.9697C26.5653 46.6306 26.476 46.3505 26.2973 46.1441C26.1185 45.9377 25.8952 45.7608 25.642 45.6428C25.3888 45.5249 25.0165 45.3922 24.5697 45.2447C24.0336 45.0678 23.6167 44.9056 23.289 44.7582C22.9614 44.6108 22.6933 44.3749 22.4699 44.0653C22.2466 43.7557 22.1274 43.3576 22.1274 42.8563C22.1274 42.4288 22.2317 42.0454 22.4402 41.7063C22.6487 41.382 22.9465 41.1166 23.3486 40.9397C23.7358 40.7628 24.2124 40.6743 24.7336 40.6743C25.5527 40.6743 26.2228 40.866 26.6993 41.2641C27.1908 41.6621 27.4588 42.1634 27.5482 42.7826H26.3866C26.327 42.4583 26.1483 42.1634 25.8803 41.9128C25.5973 41.6621 25.225 41.5294 24.7484 41.5294C24.3166 41.5294 23.9592 41.6474 23.706 41.8685C23.438 42.0897 23.3188 42.414 23.3188 42.8121C23.3188 43.1365 23.4082 43.4018 23.572 43.5935C23.7507 43.7999 23.9592 43.9473 24.2123 44.0653C24.4655 44.1832 24.8229 44.3012 25.2548 44.4486C25.7909 44.6255 26.2228 44.7877 26.5653 44.9499C26.8929 45.1121 27.1759 45.3479 27.3993 45.6576C27.6226 45.9672 27.7418 46.3947 27.7418 46.9255C27.712 47.3088 27.6227 47.6774 27.4291 48.0165Z" fill="#FF6D6D"/>
<path d="M33.2369 40.7632V49.0784H32.1498V40.7632H33.2369Z" fill="#FF6D6D"/>
<path d="M44.2275 41.3967C44.8977 41.8833 45.3445 42.532 45.5678 43.3576H44.4212C44.2276 42.8563 43.885 42.4435 43.4234 42.1486C42.9617 41.839 42.4107 41.6916 41.7703 41.6916C41.2044 41.6916 40.6832 41.8243 40.2364 42.0897C39.7896 42.355 39.4323 42.7236 39.1642 43.2102C38.911 43.6967 38.777 44.2717 38.777 44.9351C38.777 45.6133 38.911 46.203 39.1642 46.6896C39.4174 47.1761 39.7896 47.5594 40.2513 47.8248C40.713 48.0902 41.2491 48.2229 41.8597 48.2229C42.3809 48.2229 42.8425 48.1049 43.2744 47.8985C43.7063 47.6774 44.0488 47.353 44.3318 46.9402C44.6147 46.5274 44.7637 46.0261 44.8232 45.4659H41.5171V44.6697H45.7316V45.6575C45.6572 46.321 45.4487 46.9107 45.1062 47.4562C44.7637 48.0017 44.302 48.4145 43.7212 48.7241C43.1404 49.0338 42.4851 49.1959 41.7405 49.1959C40.9363 49.1959 40.2215 49.019 39.596 48.6652C38.9706 48.3113 38.494 47.8101 38.1515 47.1614C37.809 46.5274 37.6302 45.7902 37.6302 44.9646C37.6302 44.139 37.809 43.4018 38.1515 42.7679C38.494 42.1339 38.9855 41.6179 39.596 41.264C40.2066 40.9102 40.9214 40.7185 41.7256 40.7185C42.7383 40.689 43.5574 40.9249 44.2275 41.3967Z" fill="#FF6D6D"/>
<path d="M56.7218 49.0784H55.6346L51.2712 42.5029V49.0784H50.1841V40.7632H51.2712L55.6346 47.3387V40.7632H56.7218V49.0784Z" fill="#FF6D6D"/>
<path d="M72.3885 48.0165C72.1949 48.3556 71.912 48.6357 71.5248 48.8421C71.1376 49.0485 70.6611 49.1665 70.0803 49.1665C69.5293 49.1665 69.0229 49.0633 68.591 48.8716C68.1592 48.6652 67.8166 48.3998 67.5486 48.046C67.2954 47.6921 67.1465 47.2941 67.1018 46.8518H68.2634C68.2932 47.0877 68.3677 47.3236 68.5017 47.5447C68.6357 47.7659 68.8442 47.9575 69.0973 48.1049C69.3505 48.2524 69.6632 48.3261 70.0355 48.3261C70.5121 48.3261 70.8844 48.2082 71.1376 47.9428C71.3907 47.6774 71.5248 47.3678 71.5248 46.9697C71.5248 46.6306 71.4354 46.3505 71.2567 46.1441C71.078 45.9377 70.8546 45.7608 70.6015 45.6428C70.3483 45.5249 69.976 45.3922 69.5293 45.2447C68.9931 45.0678 68.5761 44.9056 68.2485 44.7582C67.9208 44.6108 67.6528 44.3749 67.4294 44.0653C67.206 43.7557 67.0869 43.3576 67.0869 42.8563C67.0869 42.4288 67.1911 42.0454 67.3996 41.7063C67.6081 41.382 67.906 41.1166 68.3081 40.9397C68.6953 40.7628 69.1718 40.6743 69.6931 40.6743C70.5121 40.6743 71.1823 40.866 71.6588 41.2641C72.1503 41.6621 72.4184 42.1634 72.5077 42.7826H71.3461C71.2865 42.4583 71.1078 42.1634 70.8397 41.9128C70.5567 41.6621 70.1845 41.5294 69.708 41.5294C69.2761 41.5294 68.9187 41.6474 68.6655 41.8685C68.3974 42.0897 68.2783 42.414 68.2783 42.8121C68.2783 43.1365 68.3676 43.4018 68.5314 43.5935C68.7101 43.7999 68.9186 43.9473 69.1718 44.0653C69.4249 44.1832 69.7824 44.3012 70.2142 44.4486C70.7504 44.6255 71.1823 44.7877 71.5248 44.9499C71.8524 45.1121 72.1354 45.3479 72.3587 45.6576C72.5821 45.9672 72.7012 46.3947 72.7012 46.9255C72.6714 47.3088 72.5821 47.6774 72.3885 48.0165Z" fill="#FF6D6D"/>
<path d="M82.2621 40.7632V41.633H79.8942V49.0784H78.7922V41.633H76.4243V40.7632H82.2621Z" fill="#FF6D6D"/>
<path d="M87.3258 40.7632V45.7464C87.3258 46.5573 87.5045 47.1618 87.8769 47.5599C88.2492 47.9432 88.7406 48.1496 89.3959 48.1496C90.0363 48.1496 90.5277 47.9579 90.8851 47.5599C91.2425 47.1618 91.4212 46.572 91.4212 45.7612V40.7779H92.5084V45.7612C92.5084 46.8964 92.2254 47.7515 91.6595 48.3118C91.0936 48.8868 90.3341 49.1669 89.381 49.1669C88.4428 49.1669 87.6833 48.8868 87.1174 48.3118C86.5515 47.7368 86.2686 46.8964 86.2686 45.7612V40.7779H87.3258V40.7632Z" fill="#FF6D6D"/>
<path d="M103.722 47.1175C103.379 47.7368 102.873 48.2233 102.218 48.5624C101.548 48.9015 100.758 49.0784 99.835 49.0784H97.1693V40.7632H99.835C100.758 40.7632 101.562 40.9254 102.218 41.2645C102.873 41.6036 103.379 42.0753 103.722 42.7093C104.064 43.3433 104.228 44.0657 104.228 44.9208C104.228 45.7612 104.064 46.4983 103.722 47.1175ZM102.262 47.2797C102.843 46.7195 103.126 45.9381 103.126 44.9208C103.126 43.9035 102.843 43.1221 102.262 42.5619C101.682 42.0016 100.848 41.7215 99.7456 41.7215H98.2415V48.1201H99.7456C100.833 48.1201 101.682 47.84 102.262 47.2797Z" fill="#FF6D6D"/>
<path d="M109.768 40.7632V49.0784H108.681V40.7632H109.768Z" fill="#FF6D6D"/>
<path d="M120.431 41.2052C121.056 41.5738 121.548 42.075 121.905 42.7237C122.263 43.3724 122.441 44.1096 122.441 44.9205C122.441 45.7314 122.263 46.4685 121.905 47.1172C121.548 47.7659 121.056 48.2672 120.431 48.6358C119.805 49.0044 119.105 49.1813 118.331 49.1813C117.557 49.1813 116.842 49.0044 116.216 48.6358C115.591 48.2672 115.085 47.7659 114.727 47.1172C114.37 46.4685 114.191 45.7314 114.191 44.9205C114.191 44.1096 114.37 43.3724 114.727 42.7237C115.085 42.075 115.576 41.5738 116.216 41.2052C116.857 40.8366 117.557 40.6597 118.331 40.6597C119.105 40.6597 119.805 40.8366 120.431 41.2052ZM116.767 42.0603C116.306 42.3257 115.948 42.6942 115.695 43.1955C115.442 43.682 115.308 44.257 115.308 44.9205C115.308 45.5692 115.442 46.1442 115.695 46.6455C115.948 47.1467 116.306 47.5153 116.767 47.7807C117.229 48.0461 117.735 48.1788 118.316 48.1788C118.882 48.1788 119.403 48.0461 119.865 47.7807C120.327 47.5153 120.684 47.132 120.937 46.6455C121.19 46.1589 121.324 45.5839 121.324 44.9352C121.324 44.2718 121.19 43.6968 120.937 43.2103C120.684 42.7237 120.327 42.3404 119.865 42.075C119.403 41.8096 118.897 41.677 118.316 41.677C117.75 41.6622 117.229 41.7949 116.767 42.0603Z" fill="#FF6D6D"/>
</svg>
