<svg width="20" height="16" viewBox="0 0 20 16" fill="none" xmlns="http://www.w3.org/2000/svg">
<path d="M19.752 2.22503C19.0355 2.53633 18.2775 2.74143 17.5018 2.83383C18.317 2.35649 18.93 1.59816 19.2259 0.70105C18.4552 1.15172 17.6135 1.46792 16.7366 1.63613C16.3674 1.24918 15.9234 0.941348 15.4315 0.731349C14.9396 0.52135 14.4101 0.413569 13.8753 0.414558C11.7099 0.414558 9.95751 2.14147 9.95751 4.27027C9.95597 4.56638 9.9899 4.86161 10.0586 5.14964C8.50582 5.07685 6.98536 4.68074 5.59446 3.98667C4.20356 3.29259 2.97285 2.31582 1.98108 1.11885C1.63314 1.70541 1.44913 2.37466 1.44828 3.05666C1.44828 4.39362 2.14581 5.5754 3.19907 6.26776C2.57504 6.25295 1.9638 6.08779 1.41724 5.78629V5.83404C1.41724 7.7042 2.77012 9.26002 4.5607 9.61415C4.22399 9.70392 3.87701 9.74939 3.52853 9.74944C3.28127 9.74987 3.03456 9.72588 2.79201 9.67782C3.28979 11.2098 4.73857 12.3239 6.45474 12.3557C5.06023 13.4304 3.34813 14.0113 1.58755 14.007C1.27504 14.0066 0.962819 13.988 0.652466 13.9513C2.44351 15.095 4.52547 15.7 6.65051 15.6942C13.8669 15.6942 17.8094 9.81709 17.8094 4.71991C17.8094 4.55278 17.805 4.38566 17.7971 4.22252C18.5623 3.67821 19.2243 3.00179 19.752 2.22503Z" fill="#126360"/>
</svg>
