<svg width="78" height="59" viewBox="0 0 78 59" fill="none" xmlns="http://www.w3.org/2000/svg">
<path d="M61.41 58.02C56.81 58.02 52.9767 56.4866 49.91 53.42C46.8433 50.2 45.31 46.1367 45.31 41.23C45.31 32.3366 47.9167 24.3633 53.13 17.31C58.4967 10.1033 64.63 4.73664 71.53 1.20998L72.45 0.97998C73.5233 0.97998 74.06 1.59332 74.06 2.81998C74.06 3.12665 73.83 3.50998 73.37 3.96998C69.8433 7.18998 67.16 10.3333 65.32 13.4C63.48 16.4666 62.56 19.15 62.56 21.45C62.56 24.0566 63.94 26.2033 66.7 27.89C70.0733 29.73 72.6033 31.7233 74.29 33.87C76.13 35.8633 77.05 38.6233 77.05 42.15C77.05 46.5966 75.5167 50.3533 72.45 53.42C69.3833 56.4866 65.7033 58.02 61.41 58.02ZM15.64 58.02C11.3467 58.02 7.66667 56.4866 4.6 53.42C1.53333 50.2 0 46.1367 0 41.23C0 32.3366 2.60667 24.3633 7.82 17.31C13.1867 10.1033 19.1667 4.81331 25.76 1.43997C26.0667 1.28664 26.45 1.20998 26.91 1.20998C27.9833 1.20998 28.52 1.74665 28.52 2.81998C28.52 3.27998 28.3667 3.66331 28.06 3.96998C24.5333 7.18998 21.85 10.3333 20.01 13.4C18.17 16.4666 17.25 19.15 17.25 21.45C17.25 24.8233 18.63 26.97 21.39 27.89C24.61 29.4233 27.0633 31.34 28.75 33.64C30.59 35.7867 31.51 38.6233 31.51 42.15C31.51 46.5966 29.9767 50.3533 26.91 53.42C23.8433 56.4866 20.0867 58.02 15.64 58.02Z" fill="#D8D8D8"/>
</svg>
